<?xml version="1.0" standalone="no"?>
<!DOCTYPE svg PUBLIC "-//W3C//DTD SVG 20010904//EN"
 "http://www.w3.org/TR/2001/REC-SVG-20010904/DTD/svg10.dtd">
<svg version="1.0" xmlns="http://www.w3.org/2000/svg"
 width="2507.000000pt" height="2507.000000pt" viewBox="0 0 2507.000000 2507.000000"
 preserveAspectRatio="xMidYMid meet">
<metadata>
Created by potrace 1.14, written by Peter Selinger 2001-2017
</metadata>
<g transform="translate(0.000000,2507.000000) scale(0.100000,-0.100000)"
fill="#000000" stroke="none">
<path d="M11470 24305 c-41 -7 -97 -16 -125 -19 -27 -4 -57 -9 -65 -11 -8 -2
-33 -6 -55 -10 -22 -3 -80 -13 -130 -21 -49 -9 -101 -18 -115 -19 -14 -2 -36
-6 -50 -10 -14 -3 -38 -8 -55 -11 -16 -3 -37 -7 -45 -10 -8 -3 -33 -8 -55 -11
-22 -3 -44 -8 -48 -13 -7 -6 21 -3 123 15 56 9 143 24 175 29 172 29 583 77
805 95 99 8 93 8 -90 8 -112 0 -227 -5 -270 -12z"/>
<path d="M13350 24314 c19 -2 87 -9 150 -14 173 -16 393 -41 410 -47 8 -4 19
-5 23 -4 7 1 175 -22 246 -34 13 -2 44 -7 68 -11 23 -3 43 -11 43 -16 0 -5 -3
-7 -8 -4 -8 4 -66 10 -217 21 -115 9 -108 7 -122 25 -11 13 -12 13 -13 -2 0
-10 -6 -15 -17 -12 -51 11 -502 28 -783 29 -222 0 -524 -10 -552 -19 -7 -3
-53 -7 -102 -11 -49 -3 -92 -8 -95 -9 -3 -2 -35 -7 -71 -10 -100 -11 -112 -12
-330 -52 -179 -33 -566 -149 -715 -214 -22 -10 -65 -28 -95 -41 -103 -43 -279
-137 -363 -193 -89 -60 -162 -120 -137 -113 8 2 24 1 35 -4 18 -7 18 -8 -5
-10 -51 -4 -166 -27 -555 -114 -150 -34 -506 -129 -675 -180 -102 -31 -203
-61 -224 -67 -30 -9 -342 -113 -661 -221 -5 -2 -23 -7 -40 -12 -16 -4 -34 -11
-40 -15 -5 -4 -55 -22 -110 -40 -55 -18 -104 -36 -110 -41 -5 -5 -17 -9 -26
-9 -10 0 -30 -6 -46 -14 -15 -8 -46 -21 -68 -30 -94 -35 -181 -69 -210 -81
-16 -8 -66 -28 -110 -46 -92 -36 -136 -55 -355 -155 -254 -115 -737 -369
-1015 -534 -115 -68 -182 -109 -380 -234 -27 -17 -85 -55 -128 -83 -43 -29
-82 -53 -87 -53 -5 0 -10 -3 -12 -7 -1 -5 -43 -35 -93 -68 -49 -32 -95 -64
-102 -70 -7 -5 -48 -35 -93 -65 -71 -48 -359 -258 -445 -325 -46 -36 -248
-194 -265 -208 -8 -7 -37 -30 -65 -52 -80 -64 -380 -321 -415 -355 -9 -8 -58
-53 -109 -100 -293 -267 -665 -643 -929 -939 -13 -14 -35 -39 -50 -56 -22 -24
-98 -113 -157 -182 -5 -6 -27 -31 -47 -55 -20 -24 -60 -72 -90 -108 -29 -36
-55 -67 -58 -70 -40 -38 -393 -501 -534 -700 -64 -91 -123 -172 -129 -180 -35
-43 -447 -675 -447 -685 0 -1 -29 -50 -65 -108 -96 -157 -231 -396 -347 -617
-94 -177 -318 -632 -318 -646 0 -4 -67 -151 -80 -175 -14 -27 -150 -359 -197
-479 -24 -63 -48 -124 -53 -135 -17 -35 -146 -405 -203 -580 -116 -355 -230
-775 -312 -1155 -2 -8 -8 -35 -14 -60 -20 -88 -107 -581 -116 -655 -4 -27 -10
-75 -15 -105 -5 -30 -11 -77 -15 -105 -3 -27 -8 -63 -10 -80 -3 -16 -7 -50 -9
-75 -12 -124 -18 -177 -21 -197 -2 -12 -6 -60 -10 -105 -3 -46 -8 -101 -10
-123 -28 -270 -27 -1231 0 -1515 26 -258 36 -359 40 -380 2 -14 7 -50 10 -80
40 -370 162 -974 276 -1370 69 -238 199 -621 260 -765 7 -16 13 -32 14 -35 7
-29 86 -214 160 -375 115 -250 261 -532 379 -730 39 -66 73 -124 75 -130 2 -5
12 -21 23 -34 10 -14 16 -32 13 -43 -4 -10 -1 -18 5 -18 6 0 8 6 5 12 -8 18 5
-1 140 -205 191 -288 335 -484 564 -767 68 -85 127 -157 130 -160 4 -3 31 -34
61 -70 30 -36 60 -70 65 -76 85 -95 174 -193 230 -253 85 -92 471 -477 519
-517 18 -16 67 -60 108 -99 41 -38 101 -92 133 -120 31 -27 63 -54 69 -60 6
-5 40 -35 76 -65 36 -30 67 -57 70 -61 3 -3 77 -63 165 -133 88 -71 165 -135
171 -142 6 -8 15 -14 21 -14 5 0 18 -8 29 -18 10 -9 39 -33 64 -52 25 -19 50
-39 56 -45 6 -5 22 -17 34 -25 13 -8 35 -25 49 -36 20 -17 290 -211 416 -300
76 -54 288 -194 293 -194 3 0 15 -8 26 -18 12 -10 77 -54 146 -97 69 -43 126
-82 128 -87 2 -4 9 -8 15 -8 7 0 36 -16 64 -35 29 -19 55 -35 58 -35 4 0 21
-10 38 -23 36 -25 45 -31 137 -84 36 -21 70 -40 75 -42 6 -2 17 -9 25 -16 8
-7 38 -25 65 -40 28 -14 64 -35 80 -45 17 -10 50 -30 75 -43 25 -13 81 -44
125 -69 158 -89 645 -337 790 -403 17 -7 55 -25 85 -38 30 -14 80 -37 110 -52
30 -14 75 -35 100 -45 25 -10 83 -35 130 -55 119 -52 455 -186 575 -230 55
-20 109 -40 120 -45 11 -5 63 -23 115 -41 52 -17 104 -35 115 -40 38 -17 390
-129 407 -129 9 0 19 -4 22 -9 3 -5 18 -11 33 -14 16 -3 91 -24 168 -46 285
-84 700 -190 1005 -255 113 -25 502 -100 570 -111 19 -3 60 -10 90 -15 30 -5
69 -12 85 -14 36 -6 212 -32 275 -41 25 -3 56 -8 70 -10 178 -29 756 -88 1065
-110 121 -8 249 -17 285 -20 78 -6 377 -14 700 -17 694 -8 1293 24 1955 103
218 26 289 35 405 54 14 2 45 7 70 10 35 5 295 48 415 70 137 24 316 60 424
84 73 17 143 33 155 35 35 7 375 93 476 121 52 14 102 28 111 30 111 25 843
263 934 304 11 5 103 42 205 81 102 40 266 109 365 152 278 123 834 402 915
461 13 9 28 17 32 17 7 0 239 136 373 220 84 52 292 188 393 256 40 27 86 56
102 65 25 14 332 241 350 259 3 3 43 34 90 70 47 35 90 69 97 75 6 5 26 21 44
35 18 14 52 41 75 60 23 19 52 44 65 54 29 24 142 119 149 126 3 3 43 38 90
79 286 249 724 684 970 964 14 15 36 41 50 56 14 16 48 55 75 86 28 32 55 63
60 69 28 31 218 264 323 395 51 65 257 340 292 391 19 28 40 57 46 63 5 7 56
80 112 162 56 83 105 155 110 160 15 19 224 349 257 407 6 10 32 54 59 100 27
45 56 96 66 112 95 170 125 224 170 306 53 98 320 635 320 644 0 2 15 37 34
78 44 96 143 328 191 448 20 52 43 109 50 125 39 89 239 658 270 765 7 25 34
115 60 200 26 85 49 165 51 177 2 12 9 35 15 50 6 16 12 35 14 43 2 8 31 123
65 255 80 315 119 492 176 790 4 22 8 45 9 50 3 11 6 31 35 210 27 164 28 171
35 225 3 25 8 56 10 70 2 14 6 43 9 65 6 52 19 149 21 155 1 3 5 41 9 85 5 44
9 87 11 95 2 9 6 52 9 95 4 44 9 98 11 120 8 63 15 161 21 280 3 61 10 112 15
113 5 2 6 9 2 15 -3 6 -5 31 -3 56 5 94 7 1101 1 1101 -3 0 -7 39 -9 88 -3 92
-7 162 -21 327 -5 55 -9 107 -9 115 0 17 -10 98 -17 145 -2 17 -7 57 -10 90
-8 82 -14 136 -19 160 -2 11 -7 43 -10 70 -9 62 -15 104 -26 179 -5 32 -9 61
-8 65 0 3 0 8 -2 11 -1 3 -3 16 -6 30 -7 43 -24 144 -29 175 -4 23 -79 390
-89 440 -1 6 -5 19 -9 30 -3 11 -8 31 -11 45 -22 120 -119 482 -197 735 -23
72 -42 137 -45 145 -9 35 -107 309 -172 480 -69 181 -87 227 -131 322 -11 26
-21 50 -21 53 0 4 -13 36 -30 72 -16 35 -30 66 -30 68 0 6 -77 169 -156 330
-71 143 -119 236 -176 335 -14 25 -49 90 -78 145 -29 55 -64 117 -76 137 -13
21 -24 42 -24 48 0 5 -3 10 -8 10 -8 0 -23 26 -42 73 -7 15 -16 27 -21 27 -5
0 -9 6 -9 13 0 6 -17 38 -38 69 -20 32 -55 86 -76 120 -54 85 -158 241 -206
308 -21 30 -39 61 -40 68 0 6 -4 12 -10 12 -5 0 -10 4 -10 9 0 5 -9 20 -20 33
-11 12 -69 91 -129 175 -60 83 -117 160 -125 170 -8 10 -63 79 -121 153 -59
74 -123 155 -143 180 -42 51 -214 252 -222 260 -3 3 -39 43 -80 90 -41 46 -84
94 -95 106 -11 12 -72 77 -135 144 -239 257 -525 536 -864 845 -148 135 -508
437 -691 580 -21 17 -43 35 -49 40 -27 25 -346 262 -489 364 -272 193 -760
513 -929 610 -18 10 -89 52 -158 93 -141 84 -268 157 -350 201 -30 16 -73 40
-95 52 -67 38 -183 99 -325 171 -74 38 -136 72 -138 77 -2 4 -8 7 -14 7 -6 0
-74 31 -152 69 -158 77 -335 159 -506 233 -63 28 -137 60 -165 73 -27 12 -144
59 -260 105 -115 45 -224 89 -242 96 -17 8 -34 14 -38 14 -4 0 -21 6 -38 14
-18 8 -45 19 -62 24 -16 6 -95 34 -175 62 -132 47 -267 91 -500 165 -47 15
-92 28 -100 30 -8 2 -40 11 -70 20 -83 24 -671 172 -705 178 -25 4 -128 26
-210 43 -55 12 -247 46 -385 69 -52 8 -106 17 -119 20 -14 2 -61 9 -105 15
-45 6 -92 14 -106 17 -14 4 -187 7 -385 8 -198 2 -344 1 -325 -1z m993 -131
c-7 -2 -21 -2 -30 0 -10 3 -4 5 12 5 17 0 24 -2 18 -5z m-3469 -572 c3 -5 -8
-11 -24 -13 -35 -5 -41 8 -7 15 12 2 23 5 24 6 1 0 4 -3 7 -8z m-4 -75 c0 -2
-37 -25 -82 -51 -137 -80 -363 -244 -418 -304 -8 -9 -31 -29 -50 -45 -34 -28
-135 -117 -235 -206 -122 -110 -325 -339 -325 -367 0 -4 -8 -16 -19 -27 -10
-12 -30 -42 -44 -68 -14 -25 -36 -63 -50 -85 -43 -68 -134 -265 -167 -361 -38
-113 -70 -272 -70 -350 0 -118 44 -230 112 -288 42 -35 128 -75 179 -81 39 -6
65 -22 32 -21 -29 1 -65 -9 -118 -33 -27 -13 -53 -22 -57 -21 -5 1 -8 -2 -8
-6 0 -5 -22 -19 -50 -32 -27 -13 -50 -27 -50 -31 0 -3 -8 -9 -17 -13 -19 -6
-54 -27 -63 -37 -3 -3 -25 -19 -50 -36 -49 -34 -160 -134 -160 -145 0 -4 15 6
33 22 85 77 113 101 130 106 9 3 17 10 17 15 0 5 6 9 13 9 8 0 22 9 32 20 10
11 20 18 23 15 3 -2 10 2 16 9 13 18 215 125 248 132 12 3 41 8 63 11 l40 5
-57 -38 c-70 -48 -129 -102 -188 -174 -25 -30 -49 -60 -55 -66 -5 -6 -17 -22
-25 -34 -8 -12 -20 -28 -25 -34 -6 -6 -28 -38 -50 -71 -21 -33 -42 -61 -47
-63 -4 -2 -8 -12 -8 -22 0 -11 -6 -23 -14 -27 -20 -12 -148 -283 -199 -423
-25 -69 -59 -179 -76 -245 -26 -104 -35 -146 -56 -274 -18 -106 -24 -361 -11
-494 16 -178 78 -382 137 -451 71 -84 128 -120 210 -134 51 -9 57 -21 26 -53
-31 -33 -60 -79 -48 -79 5 0 12 8 15 18 4 10 21 35 39 56 l33 37 23 -25 c23
-24 23 -29 13 -88 -16 -99 -7 -366 17 -487 102 -516 347 -828 702 -896 109
-21 240 -52 247 -59 3 -4 -1 -12 -10 -19 -45 -35 -205 -218 -243 -277 -96
-150 -150 -308 -182 -535 -10 -65 -10 -339 -1 -435 20 -205 111 -544 200 -740
39 -85 122 -254 128 -260 3 -3 16 -25 29 -50 14 -25 27 -47 30 -50 3 -3 12
-16 19 -30 11 -22 127 -184 165 -230 124 -154 261 -293 370 -375 84 -62 135
-131 122 -163 -5 -9 -10 -24 -12 -32 -6 -27 -6 -164 0 -210 10 -64 44 -179 59
-197 7 -9 12 -18 10 -20 -4 -5 26 -60 46 -86 22 -28 111 -118 137 -137 41 -31
75 -50 75 -43 0 5 4 3 8 -2 6 -9 52 -34 77 -41 77 -24 131 -34 190 -34 l70 -1
68 -102 c37 -56 79 -116 95 -134 15 -17 42 -50 61 -73 49 -60 163 -169 184
-176 9 -3 17 -10 17 -16 0 -5 7 -8 15 -4 8 3 14 0 12 -6 -1 -6 4 -13 12 -15
17 -7 7 12 -32 59 -15 18 -52 67 -83 108 -30 41 -62 83 -70 93 -8 9 -14 22
-14 27 0 6 -4 10 -10 10 -5 0 -10 5 -10 10 0 6 -9 20 -20 32 -11 12 -18 24
-15 26 7 8 105 -96 180 -192 17 -21 40 -50 53 -65 12 -14 27 -42 33 -61 26
-85 91 -249 147 -370 67 -147 92 -196 99 -204 5 -4 8 -11 9 -14 1 -14 39 -87
53 -104 8 -10 11 -18 8 -18 -4 0 7 -22 23 -49 17 -26 30 -51 30 -54 0 -3 23
-45 50 -93 28 -48 50 -91 50 -95 0 -5 5 -9 10 -9 6 0 10 -5 10 -10 0 -6 23
-46 50 -90 28 -44 50 -82 50 -85 0 -3 5 -11 10 -18 6 -7 43 -61 82 -122 40
-60 75 -112 78 -115 3 -3 17 -23 30 -45 14 -22 30 -47 37 -55 25 -31 203 -273
203 -276 0 -2 11 -17 24 -32 13 -15 77 -92 142 -172 116 -141 142 -173 194
-230 14 -15 57 -63 95 -106 184 -205 502 -523 685 -684 34 -30 77 -68 95 -85
18 -16 42 -37 52 -45 24 -20 152 -127 183 -153 14 -12 86 -68 160 -125 188
-145 191 -147 193 -171 1 -11 5 -21 10 -21 5 0 7 7 3 15 -3 9 0 15 9 15 8 0
15 -4 15 -8 0 -4 26 -23 58 -42 31 -19 59 -37 62 -40 3 -3 24 -18 48 -34 24
-16 48 -38 53 -48 5 -10 13 -17 17 -16 14 4 58 -15 90 -40 17 -13 32 -20 32
-15 0 11 -62 59 -72 55 -5 -1 -7 4 -5 11 1 6 -3 11 -10 10 -7 -2 -21 11 -33
27 -12 17 -19 30 -17 30 5 0 133 -82 152 -97 6 -4 46 -32 90 -62 44 -30 85
-62 91 -70 7 -9 21 -27 33 -40 12 -13 21 -28 21 -33 0 -4 5 -8 11 -8 7 0 18
-8 25 -17 7 -10 14 -13 14 -8 0 6 -13 25 -30 43 -16 18 -30 35 -30 38 0 9 121
-80 134 -98 7 -10 15 -15 19 -12 3 3 27 -23 52 -58 67 -91 87 -118 114 -152
43 -54 164 -172 210 -205 24 -17 39 -31 32 -31 -14 0 -186 -104 -208 -125 -8
-8 -24 -20 -35 -26 -31 -17 -182 -150 -219 -194 -10 -11 -34 -38 -54 -60 l-37
-40 -160 -1 c-88 -1 -181 -5 -207 -10 -25 -4 -57 -8 -71 -9 -35 -3 -115 -14
-180 -25 -30 -5 -71 -12 -90 -15 -19 -3 -42 -8 -50 -10 -8 -2 -31 -6 -50 -9
-19 -3 -87 -17 -150 -31 -63 -15 -123 -28 -133 -30 -10 -2 -26 -6 -35 -9 -9
-3 -31 -8 -49 -11 -18 -3 -45 -10 -60 -16 -15 -6 -30 -10 -33 -10 -16 1 -319
-85 -390 -111 -30 -11 -66 -22 -79 -24 -13 -3 -34 -10 -45 -16 -12 -6 -23 -11
-26 -11 -3 0 -9 -1 -15 -3 -5 -2 -57 -20 -115 -39 -58 -20 -124 -45 -147 -56
-24 -10 -47 -19 -51 -19 -13 0 -197 -76 -315 -129 -37 -17 -69 -31 -71 -31 -9
0 -151 -67 -381 -181 -221 -109 -304 -152 -455 -236 -30 -16 -77 -43 -105 -58
-27 -15 -90 -51 -140 -80 -49 -29 -110 -63 -135 -77 -25 -14 -114 -66 -199
-117 -84 -50 -155 -91 -157 -91 -1 0 -64 -38 -139 -85 -75 -47 -139 -85 -141
-85 -2 0 -12 -8 -22 -18 -29 -26 -62 -52 -68 -52 -2 0 -10 -4 -17 -10 -74 -61
-97 -73 -97 -52 0 4 -10 18 -22 32 -13 14 -45 52 -71 84 -53 66 -149 175 -217
246 -25 27 -61 65 -81 86 -52 57 -169 166 -286 268 -56 49 -100 93 -97 98 3 4
7 24 8 43 3 30 1 35 -17 35 -11 0 -18 -3 -14 -6 3 -3 -2 -14 -11 -23 -16 -17
-21 -15 -82 32 -36 28 -69 55 -75 61 -17 18 -135 96 -145 96 -6 0 -10 3 -10 8
0 8 -73 42 -91 42 -6 0 -9 3 -7 8 2 4 15 32 30 62 14 30 40 84 57 120 29 63
81 160 91 170 11 11 80 156 80 168 0 6 4 12 8 12 4 0 8 9 9 20 1 11 11 33 21
48 11 15 20 31 20 35 0 4 4 20 10 35 14 36 23 66 23 72 1 3 4 10 8 15 8 9 71
206 75 230 1 5 4 15 7 20 4 6 9 23 13 38 4 18 11 25 19 21 9 -5 9 -4 1 5 -9
10 -8 27 3 69 8 31 16 64 18 72 2 8 8 33 13 55 6 22 13 56 15 75 3 19 10 55
15 80 10 42 18 89 27 150 2 14 7 41 10 60 4 19 8 51 10 70 1 19 6 62 10 95 10
82 21 195 31 315 4 54 4 454 0 525 -2 28 -7 82 -11 120 -16 150 -20 134 33
157 26 12 56 23 66 25 23 4 32 11 24 19 -3 3 -34 -7 -68 -21 -34 -14 -65 -23
-68 -20 -4 4 -15 55 -25 113 -26 158 -28 169 -46 232 -7 25 -15 52 -16 60 -20
96 -42 173 -55 195 -4 6 -12 29 -20 53 -10 32 -11 45 -2 54 7 7 12 16 12 22 0
5 -6 1 -14 -10 -14 -18 -15 -18 -24 6 -6 14 -24 58 -41 99 -25 60 -29 77 -19
90 10 13 10 14 -2 3 -12 -10 -22 5 -65 90 -76 154 -108 208 -229 388 -96 143
-206 289 -288 381 -13 14 -52 59 -88 100 -72 82 -231 242 -276 277 -15 12 -22
22 -15 22 8 0 12 3 8 6 -3 3 -2 17 3 30 6 15 6 26 -1 30 -6 3 -7 10 -1 17 6 7
12 35 15 62 2 28 7 61 11 75 3 14 8 39 11 55 2 17 11 68 19 115 7 47 17 112
21 145 11 100 15 128 21 175 8 56 10 80 18 152 3 32 8 68 10 80 3 13 8 52 11
88 4 36 8 76 10 90 3 28 16 139 21 185 1 17 6 62 9 100 3 39 8 81 10 95 2 14
7 72 10 130 4 58 9 128 10 155 21 304 21 944 1 1050 -2 11 -7 47 -11 79 -16
143 -72 306 -139 406 -111 166 -308 250 -506 217 -30 -5 -64 -10 -75 -12 -18
-2 -66 -20 -120 -45 -11 -5 -31 -14 -45 -20 -14 -6 -34 -16 -45 -23 -108 -65
-153 -94 -169 -109 -11 -10 -23 -18 -26 -18 -15 0 -117 -84 -237 -195 -125
-115 -184 -176 -314 -325 -139 -159 -479 -635 -479 -670 0 -6 -4 -10 -8 -10
-5 0 -17 -18 -27 -40 -10 -22 -21 -40 -25 -40 -4 0 -13 -13 -20 -30 -7 -16
-16 -30 -21 -30 -5 0 -9 -6 -9 -13 0 -7 -9 -23 -19 -34 -11 -12 -18 -23 -15
-25 2 -3 -5 -13 -16 -23 -11 -10 -20 -25 -20 -33 0 -8 -10 -23 -22 -33 -11
-11 -18 -19 -14 -19 3 0 -1 -14 -9 -30 -9 -17 -20 -28 -25 -25 -6 4 -7 -1 -3
-11 4 -12 3 -15 -5 -10 -8 5 -10 2 -6 -8 3 -9 1 -16 -6 -16 -6 0 -8 -4 -5 -10
3 -5 1 -10 -4 -10 -6 0 -11 -9 -11 -19 0 -11 -9 -23 -20 -26 -11 -4 -18 -11
-14 -16 3 -6 -2 -17 -12 -25 -11 -9 -13 -12 -6 -9 8 4 3 -9 -9 -28 -13 -19
-27 -33 -31 -31 -4 3 -5 -1 -2 -9 3 -8 -2 -17 -11 -21 -9 -3 -13 -10 -10 -16
3 -5 1 -10 -5 -10 -6 0 -8 -5 -5 -10 3 -6 -1 -17 -9 -26 -9 -8 -16 -22 -16
-30 0 -8 -4 -14 -10 -14 -5 0 -10 -7 -10 -15 0 -8 -4 -15 -10 -15 -5 0 -10 -8
-10 -17 0 -10 -7 -27 -15 -37 -8 -11 -15 -27 -15 -36 0 -14 -9 -15 -57 -9 -65
7 -416 3 -533 -6 -41 -3 -97 -8 -125 -9 -86 -6 -236 -22 -285 -31 -14 -3 -46
-7 -72 -10 -62 -7 -119 -15 -138 -20 -8 -3 -33 -7 -55 -10 -223 -33 -718 -177
-931 -271 -169 -74 -248 -107 -250 -102 -1 2 -10 -4 -20 -13 -31 -26 -48 -34
-40 -18 5 8 2 8 -6 -2 -36 -43 -98 -44 -135 -1 -13 15 -23 23 -23 17 0 -6 -3
-6 -8 1 -6 9 -103 83 -311 237 -35 26 -76 55 -92 64 -16 10 -29 21 -29 25 0 4
-7 8 -15 8 -8 0 -15 5 -15 10 0 6 -7 10 -15 10 -8 0 -15 5 -15 10 0 6 -4 10
-9 10 -10 0 -113 67 -172 113 -20 15 -39 27 -42 27 -13 0 -46 34 -41 42 3 4
-2 5 -10 2 -9 -3 -16 -1 -16 5 0 6 -6 11 -13 11 -7 0 -22 8 -33 18 -11 11 -24
21 -29 23 -17 7 -159 102 -173 115 -6 7 -21 16 -32 19 -11 3 -20 10 -20 14 0
5 -13 14 -30 21 -16 7 -30 16 -30 20 0 4 -17 15 -38 26 -20 10 -39 22 -42 25
-4 5 -52 37 -190 129 -77 51 -190 118 -190 112 0 -4 -4 -2 -8 4 -7 11 -32 26
-127 77 -22 12 -42 24 -45 27 -22 22 -595 306 -635 315 -5 1 -22 7 -38 13
-184 76 -388 104 -530 73 -56 -12 -179 -73 -185 -92 -2 -5 -7 -9 -12 -9 -19 0
-140 -138 -140 -159 0 -6 -5 -11 -11 -11 -5 0 -8 -4 -5 -9 3 -5 -5 -25 -18
-44 -13 -19 -22 -38 -19 -40 3 -3 -3 -39 -12 -79 -17 -74 -22 -268 -10 -358
12 -95 26 -177 37 -215 5 -22 11 -49 13 -60 3 -28 44 -175 56 -205 6 -14 13
-35 15 -47 2 -12 20 -66 39 -120 20 -54 37 -105 39 -113 5 -17 76 -196 102
-255 10 -22 18 -42 19 -45 9 -31 174 -369 185 -380 3 -3 21 -35 40 -72 19 -38
38 -68 42 -68 5 0 8 -9 8 -20 0 -11 5 -20 10 -20 6 0 10 -6 10 -14 0 -7 9 -25
21 -40 11 -14 17 -26 12 -26 -4 0 -3 -4 3 -8 6 -4 22 -26 35 -50 13 -23 66
-111 117 -195 51 -83 98 -161 105 -172 7 -11 14 -22 17 -25 3 -3 10 -13 15
-22 6 -10 60 -95 120 -189 61 -95 112 -177 114 -182 2 -6 12 -20 23 -31 10
-11 18 -25 18 -32 0 -7 3 -14 8 -16 10 -4 52 -65 52 -75 0 -5 9 -15 19 -23 19
-13 17 -16 -37 -67 -31 -29 -54 -53 -50 -53 4 0 -8 -26 -26 -57 -54 -91 -108
-217 -147 -338 -27 -81 -69 -220 -74 -242 -3 -10 -9 -36 -14 -58 -5 -22 -12
-56 -15 -75 -3 -19 -8 -51 -11 -71 -34 -211 -38 -537 -11 -829 7 -70 18 -154
21 -160 1 -3 6 -27 9 -55 15 -107 91 -420 109 -442 5 -7 7 -13 4 -13 -11 0 87
-275 130 -367 8 -17 16 -37 17 -45 1 -7 8 -23 14 -35 7 -13 9 -23 5 -23 -4 0
-3 -4 3 -8 6 -4 38 -61 71 -127 62 -124 141 -260 181 -311 12 -16 41 -54 62
-84 64 -88 80 -109 169 -220 87 -108 93 -116 158 -187 63 -70 73 -82 64 -88
-5 -3 -17 -2 -28 1 -15 5 -15 4 -3 -5 8 -6 12 -11 8 -11 -5 0 -9 1 -10 2 -2 1
-29 -24 -61 -55 -31 -31 -63 -57 -70 -57 -9 0 -9 -2 1 -9 9 -5 34 12 79 56 36
34 72 64 79 65 8 0 18 1 23 2 5 1 58 -46 118 -104 175 -169 263 -245 345 -300
43 -28 80 -55 83 -61 6 -9 -63 -100 -95 -126 -8 -7 -10 -13 -4 -13 12 0 84 79
84 93 0 4 5 5 12 1 7 -4 8 -3 4 5 -4 6 0 14 8 17 14 5 138 -67 183 -106 7 -5
15 -10 18 -10 3 0 18 -8 33 -19 80 -55 143 -90 292 -164 91 -45 166 -85 168
-89 2 -5 11 -8 19 -8 9 0 32 -12 52 -27 19 -16 69 -41 111 -58 41 -16 86 -38
100 -48 l25 -18 -24 -42 c-44 -80 -151 -292 -151 -300 0 -5 -6 -23 -14 -40
-20 -44 -70 -186 -100 -282 -50 -163 -66 -223 -95 -355 -37 -167 -39 -177 -40
-218 -1 -19 -5 -31 -11 -27 -7 4 -7 -2 -1 -18 6 -14 8 -27 5 -30 -19 -18 -45
-456 -31 -517 2 -8 7 -31 11 -50 5 -19 13 -42 19 -50 11 -15 -22 10 -54 40
-32 30 -69 60 -74 60 -3 0 -18 12 -33 28 -15 15 -38 35 -51 44 -22 16 -139
120 -224 201 -22 20 -44 37 -49 37 -4 0 -8 7 -8 17 0 9 -3 14 -6 10 -14 -14
-570 542 -739 738 -27 32 -61 70 -75 85 -14 15 -45 51 -70 80 -25 30 -54 64
-65 76 -11 13 -30 36 -42 51 -12 15 -32 40 -45 55 -49 57 -58 69 -58 77 0 5
-4 11 -9 13 -12 4 -125 149 -231 293 -28 39 -56 77 -63 85 -7 8 -39 53 -72
100 -32 47 -62 87 -65 90 -4 3 -15 21 -26 40 -10 19 -22 37 -25 40 -11 10 -89
132 -89 140 0 5 -3 10 -7 12 -7 3 -75 109 -151 235 l-31 52 20 25 c25 31 18
34 -10 5 l-20 -22 -13 29 c-7 16 -15 31 -18 34 -3 3 -14 22 -23 42 -10 20 -22
40 -27 43 -6 4 -8 11 -5 16 4 5 2 9 -2 9 -5 0 -37 55 -72 123 -34 67 -67 129
-72 137 -13 22 -151 312 -189 400 -18 41 -40 91 -49 110 -8 19 -16 37 -17 40
0 3 -8 22 -17 44 -9 21 -17 42 -17 47 0 10 -5 21 -34 77 -9 17 -15 32 -12 32
3 0 -1 12 -9 27 -8 15 -12 30 -9 35 3 4 0 8 -7 8 -7 0 -9 3 -6 6 4 4 0 19 -7
33 -8 14 -24 55 -36 91 -12 36 -25 74 -30 85 -5 11 -14 38 -20 60 -6 22 -14
47 -18 55 -3 8 -7 20 -8 25 -1 6 -3 13 -4 18 -1 4 -3 10 -5 15 -1 4 -5 15 -8
25 -4 9 -10 25 -13 35 -8 23 -75 253 -80 272 -2 8 -11 42 -20 75 -9 33 -18 69
-21 80 -3 11 -9 37 -14 58 -14 58 -37 154 -43 182 -10 45 -16 74 -20 95 -3 14
-10 45 -16 70 -7 25 -16 69 -21 98 -5 28 -14 78 -19 110 -11 57 -37 215 -45
262 -2 14 -7 45 -11 70 -4 25 -9 61 -11 80 -14 116 -16 138 -17 168 -1 17 -4
32 -7 32 -3 0 -6 6 -6 13 -3 61 -13 177 -18 197 -3 14 -7 63 -10 110 -3 47 -7
110 -10 140 -3 30 -7 101 -9 157 -3 57 -7 107 -10 112 -4 5 -2 12 3 15 7 5 8
41 1 41 -1 0 -4 58 -7 128 -3 104 -2 127 9 121 10 -6 11 -5 1 7 -15 18 -16
422 -1 451 4 9 4 19 -1 22 -4 3 -7 18 -5 33 2 16 6 82 9 148 5 104 12 200 15
200 0 0 2 34 5 75 2 41 6 95 9 120 3 25 7 70 11 100 3 30 7 71 10 90 3 19 7
58 10 86 7 62 12 91 20 103 3 5 1 12 -5 16 -7 4 -7 12 0 24 5 10 11 40 14 67
2 27 5 49 6 49 0 0 3 18 5 40 3 21 7 54 10 72 3 18 8 50 11 71 3 20 7 44 9 52
2 8 7 33 10 55 3 23 8 52 10 65 3 14 7 39 10 55 3 17 10 53 15 80 5 28 12 61
14 75 3 14 5 26 7 28 3 4 5 14 13 75 4 31 11 57 15 57 3 0 6 12 5 28 -1 15 2
37 7 49 4 11 15 54 24 95 19 87 16 78 50 214 15 60 29 120 32 134 2 14 8 27
14 28 5 2 7 8 4 13 -3 4 2 34 11 66 10 32 19 63 20 68 1 6 7 30 14 55 7 25 11
45 11 45 -1 0 7 25 17 55 11 30 20 58 20 63 4 22 16 63 21 72 3 6 6 15 7 22 5
30 48 159 57 171 5 6 7 12 4 12 -7 0 32 122 45 137 6 7 8 13 4 13 -3 0 8 37
25 83 16 45 31 89 33 98 2 8 11 31 18 50 8 18 16 37 17 41 2 9 5 20 26 78 9
25 19 55 22 68 3 12 9 22 14 22 5 0 8 3 7 8 -2 8 18 72 40 122 9 19 17 40 18
45 7 31 176 423 279 650 63 139 229 470 237 473 4 2 6 7 3 12 -3 5 2 16 11 24
8 9 13 16 10 16 -3 0 11 28 30 63 20 34 42 76 50 92 7 17 28 55 45 85 34 58
69 121 119 210 16 30 35 62 40 70 5 8 39 66 75 127 37 62 73 120 81 128 9 8
13 15 10 15 -8 0 56 104 66 108 4 2 8 10 8 18 0 8 5 14 10 14 6 0 10 5 10 10
0 6 8 23 19 38 10 15 55 83 99 152 45 69 85 130 89 135 5 6 24 34 42 63 19 30
41 61 50 70 9 8 16 18 16 21 1 6 32 56 48 76 4 6 37 51 72 100 35 50 69 95 75
102 5 7 10 14 10 17 0 5 140 191 280 371 83 108 301 378 319 396 9 8 30 32 46
53 28 36 54 67 107 126 13 14 41 45 62 70 72 83 180 202 243 268 35 37 63 67
63 69 0 5 452 455 546 543 77 72 151 140 290 265 24 22 25 23 174 150 58 50
123 104 145 122 22 18 78 63 125 101 93 75 183 145 330 255 52 39 98 76 102
82 4 5 8 6 8 2 0 -4 10 2 23 13 25 24 474 340 483 340 2 0 10 5 17 10 11 10
206 138 253 167 10 6 57 36 103 65 47 29 101 63 120 75 20 13 43 26 51 30 8 4
34 20 56 35 23 15 45 28 49 28 4 0 19 8 33 19 15 10 50 31 77 46 28 15 73 41
100 56 28 16 70 39 95 51 25 13 47 26 50 29 10 11 474 244 615 309 93 43 109
50 210 95 168 75 659 266 865 337 63 21 124 43 135 48 11 4 49 18 85 30 36 12
72 25 80 28 8 3 17 6 20 7 3 0 122 40 265 87 539 178 963 295 1420 392 137 28
159 33 163 35 1 0 2 -1 2 -3z m-2003 -7911 c0 -8 -4 -12 -9 -9 -5 3 -6 10 -3
15 9 13 12 11 12 -6z m34 2 c-6 -8 -7 -18 -3 -22 4 -5 1 -5 -6 -1 -10 6 -10
11 -1 22 6 8 14 14 16 14 3 0 0 -6 -6 -13z m72 -12 c16 1 31 -3 34 -9 3 -5 1
-6 -5 -2 -7 4 -12 2 -12 -5 0 -10 -3 -10 -12 -1 -18 18 -33 15 -18 -3 18 -22
-4 -46 -22 -26 -11 11 -10 13 5 8 19 -7 23 3 6 20 -6 6 -18 9 -25 6 -8 -3 -14
0 -14 7 0 6 5 8 12 4 8 -5 9 -1 5 12 -6 16 -5 17 5 4 7 -9 26 -15 41 -15z
m-126 -30 c0 -8 -4 -12 -9 -9 -5 3 -6 10 -3 15 9 13 12 11 12 -6z m221 -26 c9
-12 9 -16 -1 -16 -7 0 -14 9 -14 20 -1 11 -1 18 0 16 2 -2 8 -11 15 -20z
m-124 -18 c-2 -3 -12 3 -22 13 -16 17 -16 18 5 5 12 -7 20 -15 17 -18z m46 9
c0 -5 -4 -10 -10 -10 -5 0 -10 5 -10 10 0 6 5 10 10 10 6 0 10 -4 10 -10z m24
-38 c3 -5 -1 -9 -9 -9 -8 0 -12 4 -9 9 3 4 7 8 9 8 2 0 6 -4 9 -8z m117 -5
c-6 -8 -7 -18 -3 -22 4 -5 1 -5 -6 -1 -10 6 -10 11 -1 22 6 8 14 14 16 14 3 0
0 -6 -6 -13z m1007 -22 c-3 -3 -9 2 -12 12 -6 14 -5 15 5 6 7 -7 10 -15 7 -18z
m22 -58 c0 -5 6 -23 14 -40 7 -18 19 -48 26 -67 7 -19 19 -50 27 -69 8 -18 16
-39 18 -45 3 -14 27 -69 71 -164 19 -41 34 -78 34 -82 0 -5 3 -10 8 -12 4 -2
22 -32 40 -68 18 -36 24 -54 13 -40 -10 13 -36 58 -58 100 -21 41 -42 78 -46
81 -5 3 -8 9 -8 12 0 6 -17 48 -54 132 -21 49 -67 169 -70 185 -2 8 -12 40
-24 70 -13 36 -15 48 -6 36 8 -11 15 -24 15 -29z m-1152 21 c-2 -7 2 -12 8
-11 6 1 11 -5 11 -13 0 -12 -4 -11 -18 2 -10 9 -16 21 -13 25 8 13 14 11 12
-3z m15436 -233 c61 -246 113 -487 151 -700 16 -92 34 -204 38 -235 3 -19 10
-64 16 -100 6 -36 20 -144 31 -240 11 -96 22 -188 25 -205 2 -16 7 -64 10
-105 3 -41 7 -95 10 -120 10 -111 15 -173 20 -280 3 -63 8 -160 11 -215 12
-213 6 -799 -11 -1065 -3 -41 -7 -111 -10 -155 -3 -44 -7 -100 -10 -125 -2
-25 -7 -79 -10 -120 -4 -41 -8 -86 -10 -100 -2 -14 -6 -54 -10 -90 -4 -36 -8
-76 -10 -90 -2 -14 -11 -83 -20 -155 -9 -71 -18 -141 -20 -155 -2 -14 -7 -45
-10 -70 -25 -180 -104 -616 -153 -839 l-27 -125 -55 -2 c-225 -10 -406 -26
-667 -60 -18 -2 -48 -6 -65 -8 -18 -2 -44 -7 -58 -10 -27 -6 -74 -15 -105 -20
-11 -2 -45 -8 -75 -15 -30 -6 -65 -13 -78 -16 -13 -2 -32 -7 -42 -10 -10 -3
-28 -8 -40 -10 -13 -2 -67 -16 -122 -30 -114 -30 -143 -28 -166 7 -26 38 -71
76 -132 112 -68 39 -180 88 -180 78 0 -4 -4 -2 -8 5 -7 11 -166 56 -242 68
-19 3 -48 8 -65 11 -32 6 -89 11 -171 15 -52 2 -102 -19 -86 -37 4 -4 -1 -2
-10 5 -10 7 -20 23 -23 34 -4 12 -17 51 -30 87 -30 87 -47 144 -44 150 1 3 -3
15 -10 28 -12 22 -16 37 -27 92 -3 14 -8 34 -11 45 -4 11 -8 25 -9 30 -9 41
-14 63 -19 85 -3 14 -7 36 -9 50 -2 14 -7 36 -10 50 -9 39 -15 80 -21 135 -3
28 -7 61 -10 75 -8 39 -17 167 -18 255 -1 44 -6 83 -12 87 -6 5 -6 8 0 8 6 0
11 63 13 163 2 89 6 171 9 182 3 11 27 65 53 120 40 84 86 189 187 425 8 19
20 49 28 65 7 17 23 57 35 90 13 33 31 79 41 102 11 23 19 44 19 47 0 2 5 17
12 33 6 15 12 33 14 38 1 6 19 55 39 110 20 55 38 107 40 115 2 8 4 16 5 18 2
1 3 5 5 10 1 4 4 14 8 22 7 18 61 182 63 193 1 4 2 14 3 23 0 8 6 12 11 9 6
-4 8 -10 6 -14 -3 -4 -1 -13 4 -21 5 -8 5 -21 0 -30 -5 -9 -5 -22 1 -31 8 -12
10 -12 8 1 -4 38 1 44 18 20 15 -23 50 -53 63 -56 3 0 19 -6 35 -13 49 -19 55
-21 55 -13 0 6 -35 21 -80 33 -17 4 -80 68 -80 81 0 19 -2 24 -14 43 -11 17
-11 29 1 70 8 28 14 55 15 61 1 9 10 9 32 1 17 -6 66 -12 109 -15 65 -3 85 0
125 19 77 37 164 129 212 224 12 23 24 31 56 37 83 13 187 84 239 162 11 16
30 43 41 60 12 17 20 34 17 39 -2 4 0 7 5 7 4 0 17 26 27 58 15 49 21 95 24
213 1 20 7 28 25 31 14 3 30 0 37 -6 9 -8 10 -8 5 2 -5 8 3 12 27 12 86 0 240
75 322 156 27 27 87 111 103 144 39 82 63 184 48 201 -8 9 -8 10 0 6 9 -5 10
3 4 28 -6 25 -4 38 6 46 8 6 14 16 14 21 0 11 51 81 63 86 4 2 7 8 7 13 0 6
11 22 25 37 14 15 25 30 25 34 0 4 17 34 39 67 21 33 53 90 72 128 19 37 36
70 40 73 3 3 13 23 23 45 10 22 32 69 48 105 33 72 42 93 89 195 17 39 33 66
35 60 2 -5 23 -91 48 -190z m-15425 169 c-7 -8 -7 -14 1 -19 5 -3 10 -1 10 4
0 6 5 11 11 11 5 0 7 -4 4 -10 -3 -5 0 -10 7 -10 8 0 6 -5 -5 -11 -14 -8 -16
-14 -6 -25 15 -18 7 -27 -15 -18 -13 5 -14 9 -6 14 9 5 6 10 -9 15 -11 3 -26
16 -32 28 -9 20 -9 21 4 4 9 -11 18 -14 21 -8 4 5 2 12 -4 16 -14 8 -5 22 14
22 11 0 13 -4 5 -13z m87 -39 c-1 -8 -5 -17 -8 -21 -5 -4 -4 16 1 34 3 9 9 -1
7 -13z m15145 -72 c-12 -20 -14 -14 -5 12 4 9 9 14 11 11 3 -2 0 -13 -6 -23z
m-15146 -231 c-3 -3 -11 0 -18 7 -9 10 -8 11 6 5 10 -3 15 -9 12 -12z m5 -26
c0 -3 -4 -8 -10 -11 -5 -3 -10 -1 -10 4 0 6 5 11 10 11 6 0 10 -2 10 -4z m5
-174 c-3 -3 -11 0 -18 7 -9 10 -8 11 6 5 10 -3 15 -9 12 -12z m12 -39 c0 -7
-4 -13 -8 -13 -4 0 -9 6 -12 13 -3 8 0 14 7 14 7 0 13 -6 13 -14z m-13 -31 c3
-5 -1 -9 -9 -9 -8 0 -12 4 -9 9 3 4 7 8 9 8 2 0 6 -4 9 -8z m20 -81 c-2 -3
-12 3 -22 13 -16 17 -16 18 5 5 12 -7 20 -15 17 -18z m-13 -114 c-10 -9 -11
-8 -5 6 3 10 9 15 12 12 3 -3 0 -11 -7 -18z m49 -27 c0 -5 -5 -10 -11 -10 -5
0 -7 5 -4 10 3 6 8 10 11 10 2 0 4 -4 4 -10z m14718 -60 c-7 -10 -14 -17 -17
-15 -4 4 18 35 25 35 2 0 -1 -9 -8 -20z m-14743 0 c3 -5 1 -10 -4 -10 -6 0
-11 5 -11 10 0 6 2 10 4 10 3 0 8 -4 11 -10z m115 -36 c0 -8 -19 -13 -24 -6
-3 5 1 9 9 9 8 0 15 -2 15 -3z m60 0 c0 -8 -19 -13 -24 -6 -3 5 1 9 9 9 8 0
15 -2 15 -3z m30 -8 c0 -2 -8 -10 -17 -17 -16 -13 -17 -12 -4 4 13 16 21 21
21 13z m-84 -38 c3 -4 -1 -5 -10 -4 -8 1 -18 5 -22 8 -3 4 1 5 10 4 8 -1 18
-5 22 -8z m-1219 -23 c0 -8 -4 -12 -9 -9 -5 3 -6 10 -3 15 9 13 12 11 12 -6z
m1243 -69 c0 -2 -7 -7 -16 -10 -8 -3 -12 -2 -9 4 6 10 25 14 25 6z m50 -67 c0
-4 -9 -7 -19 -6 -11 0 -18 4 -16 7 6 9 35 8 35 -1z m-13 -25 c-3 -3 -2 -17 3
-30 6 -14 6 -26 -1 -29 -5 -4 -7 -11 -4 -16 4 -5 1 -9 -4 -9 -13 0 -14 17 -2
24 5 3 7 15 4 26 -3 11 -10 17 -17 13 -6 -4 -5 1 3 10 7 9 16 17 19 17 3 0 3
-3 -1 -6z m-161 -34 c0 -12 -4 -16 -9 -11 -5 5 -6 14 -3 20 10 15 12 14 12 -9z
m120 3 c0 -11 5 -17 14 -15 8 2 11 0 7 -4 -16 -17 -34 -11 -32 10 3 24 3 26 9
26 2 0 3 -8 2 -17z m-39 -12 c0 -11 -5 -18 -9 -15 -4 3 -5 11 -1 19 7 21 12
19 10 -4z m-6 -38 c13 -16 12 -17 -3 -4 -17 13 -22 21 -14 21 2 0 10 -8 17
-17z m94 -34 c-4 -5 -12 -9 -18 -8 -9 0 -8 2 1 6 6 2 9 10 6 15 -4 7 -2 8 5 4
6 -4 9 -12 6 -17z m-8445 7 c0 -2 -7 -7 -16 -10 -8 -3 -12 -2 -9 4 6 10 25 14
25 6z m8275 -26 c3 -5 1 -10 -4 -10 -6 0 -11 5 -11 10 0 6 2 10 4 10 3 0 8 -4
11 -10z m138 -15 c-7 -21 -12 -19 -10 4 0 11 5 18 9 15 4 -3 5 -11 1 -19z
m-8253 -49 c0 -6 -5 -3 -11 7 -6 9 -15 14 -21 11 -7 -4 -8 -2 -4 5 9 14 36 -3
36 -23z m8216 -1 c-1 -8 -5 -17 -8 -21 -5 -4 -4 16 1 34 3 9 9 -1 7 -13z m44
9 c0 -8 -19 -13 -24 -6 -3 5 1 9 9 9 8 0 15 -2 15 -3z m11 -17 c-10 -9 -11 -8
-5 6 3 10 9 15 12 12 3 -3 0 -11 -7 -18z m-8455 -12 c-1 -8 -5 -17 -8 -21 -5
-4 -4 16 1 34 3 9 9 -1 7 -13z m184 1 c0 -2 -8 -10 -17 -17 -16 -13 -17 -12
-4 4 13 16 21 21 21 13z m8180 -72 c0 -8 -19 -13 -24 -6 -3 5 1 9 9 9 8 0 15
-2 15 -3z m55 -3 c-9 -8 -36 -10 -30 -2 2 4 11 8 20 8 8 0 13 -3 10 -6z
m-8315 -15 c0 -3 -4 -8 -10 -11 -5 -3 -10 -1 -10 4 0 6 5 11 10 11 6 0 10 -2
10 -4z m-120 -66 c0 -5 -5 -10 -11 -10 -5 0 -7 5 -4 10 3 6 8 10 11 10 2 0 4
-4 4 -10z m8377 -12 c2 -17 0 -19 -7 -8 -5 8 -6 18 -4 22 8 12 10 10 11 -14z
m60 -13 c0 -8 -4 -12 -9 -9 -5 3 -6 10 -3 15 9 13 12 11 12 -6z m-8460 -27 c2
-17 0 -19 -7 -8 -5 8 -6 18 -4 22 8 12 10 10 11 -14z m103 17 c0 -7 -30 -13
-34 -7 -3 4 4 9 15 9 10 1 19 0 19 -2z m8195 -4 c3 -5 2 -12 -3 -15 -5 -3 -9
1 -9 9 0 17 3 19 12 6z m-8251 -39 c3 -5 -1 -9 -9 -9 -8 0 -12 4 -9 9 3 4 7 8
9 8 2 0 6 -4 9 -8z m92 -4 c3 -4 -1 -5 -10 -4 -8 1 -18 5 -22 8 -3 4 1 5 10 4
8 -1 18 -5 22 -8z m8220 0 c3 -4 -1 -5 -10 -4 -8 1 -18 5 -22 8 -3 4 1 5 10 4
8 -1 18 -5 22 -8z m84 2 c0 -5 -2 -10 -4 -10 -3 0 -8 5 -11 10 -3 6 -1 10 4
10 6 0 11 -4 11 -10z m-8435 -20 c-3 -5 -12 -10 -18 -10 -7 0 -6 4 3 10 19 12
23 12 15 0z m80 0 c-3 -5 -12 -10 -18 -10 -7 0 -6 4 3 10 19 12 23 12 15 0z
m71 -25 c-1 -8 -5 -17 -8 -21 -5 -4 -4 16 1 34 3 9 9 -1 7 -13z m8160 0 c-1
-8 -5 -17 -8 -21 -5 -4 -4 16 1 34 3 9 9 -1 7 -13z m124 5 c0 -5 -5 -10 -11
-10 -5 0 -7 5 -4 10 3 6 8 10 11 10 2 0 4 -4 4 -10z m-8425 -28 c-3 -3 -11 0
-18 7 -9 10 -8 11 6 5 10 -3 15 -9 12 -12z m8341 3 c-1 -8 -5 -17 -8 -21 -5
-4 -4 16 1 34 3 9 9 -1 7 -13z m99 -13 c-3 -3 1 -12 7 -21 10 -12 7 -12 -8 2
-11 9 -24 14 -29 10 -4 -5 -5 -3 -2 3 3 6 13 11 22 11 8 0 13 -3 10 -5z
m-8235 -21 c0 -6 -4 -12 -8 -15 -5 -3 -9 1 -9 9 0 8 4 15 9 15 4 0 8 -4 8 -9z
m-200 -25 c0 -2 -8 -10 -17 -17 -16 -13 -17 -12 -4 4 13 16 21 21 21 13z m78
-21 c-3 -3 -9 2 -12 12 -6 14 -5 15 5 6 7 -7 10 -15 7 -18z m193 -2 c13 -16
12 -17 -3 -4 -10 7 -18 15 -18 17 0 8 8 3 21 -13z m8039 -9 c0 -8 -19 -13 -24
-6 -3 5 1 9 9 9 8 0 15 -2 15 -3z m-1314 -19 c-1 -8 -5 -17 -8 -21 -5 -4 -4
16 1 34 3 9 9 -1 7 -13z m1424 -25 c0 -5 -2 -10 -4 -10 -3 0 -8 5 -11 10 -3 6
-1 10 4 10 6 0 11 -4 11 -10z m-125 -29 c3 -5 2 -12 -3 -15 -5 -3 -9 1 -9 9 0
17 3 19 12 6z m60 -30 c3 -5 2 -12 -3 -15 -5 -3 -9 1 -9 9 0 17 3 19 12 6z
m-55 -81 c0 -5 -5 -10 -11 -10 -5 0 -7 5 -4 10 3 6 8 10 11 10 2 0 4 -4 4 -10z
m117 -9 c0 -11 -5 -18 -9 -15 -4 3 -5 11 -1 19 7 21 12 19 10 -4z m-8362 -10
c-9 -8 -36 -10 -30 -2 2 4 11 8 20 8 8 0 13 -3 10 -6z m205 -41 c0 -5 -5 -10
-11 -10 -5 0 -7 5 -4 10 3 6 8 10 11 10 2 0 4 -4 4 -10z m8154 -6 c3 -8 2 -12
-4 -9 -6 3 -10 10 -10 16 0 14 7 11 14 -7z m-158 -19 c-1 -8 -5 -17 -8 -21 -5
-4 -4 16 1 34 3 9 9 -1 7 -13z m-7980 -17 c3 -4 -1 -5 -10 -4 -8 1 -18 5 -22
8 -3 4 1 5 10 4 8 -1 18 -5 22 -8z m79 -86 c-3 -3 -11 0 -18 7 -9 10 -8 11 6
5 10 -3 15 -9 12 -12z m25 -26 c0 -3 -4 -8 -10 -11 -5 -3 -10 -1 -10 4 0 6 5
11 10 11 6 0 10 -2 10 -4z m7836 -8 c4 -6 3 -8 -4 -4 -6 3 -15 -2 -21 -11 -6
-10 -11 -13 -11 -7 0 9 19 34 26 34 2 0 6 -5 10 -12z m2511 6 c-3 -3 -12 -4
-19 -1 -8 3 -5 6 6 6 11 1 17 -2 13 -5z m-2842 -24 c-3 -5 -12 -10 -18 -10 -7
0 -6 4 3 10 19 12 23 12 15 0z m369 2 c3 -5 -1 -9 -9 -9 -8 0 -12 4 -9 9 3 4
7 8 9 8 2 0 6 -4 9 -8z m-7943 -49 c13 -16 12 -17 -3 -4 -17 13 -22 21 -14 21
2 0 10 -8 17 -17z m4 -32 c3 -5 2 -12 -3 -15 -5 -3 -9 1 -9 9 0 17 3 19 12 6z
m7915 3 c0 -8 -19 -13 -24 -6 -3 5 1 9 9 9 8 0 15 -2 15 -3z m6 -44 c0 -12 -4
-16 -9 -11 -5 5 -6 14 -3 20 10 15 12 14 12 -9z m122 -5 c-3 -3 -9 2 -12 12
-6 14 -5 15 5 6 7 -7 10 -15 7 -18z m-8008 -15 c8 -5 11 -10 5 -10 -5 0 -17 5
-25 10 -8 5 -10 10 -5 10 6 0 17 -5 25 -10z m7740 7 c0 -2 -10 -12 -22 -23
l-23 -19 19 23 c18 21 26 27 26 19z m-7650 -28 c0 -5 -4 -9 -8 -9 -5 0 -9 7
-9 15 0 8 4 12 9 9 4 -3 8 -9 8 -15z m7675 12 c3 -5 2 -12 -3 -15 -5 -3 -9 1
-9 9 0 17 3 19 12 6z m101 -27 c1 -9 0 -13 -4 -10 -3 4 -7 14 -8 22 -1 9 0 13
4 10 3 -4 7 -14 8 -22z m64 -4 c0 -5 -5 -10 -11 -10 -5 0 -7 5 -4 10 3 6 8 10
11 10 2 0 4 -4 4 -10z m-7925 -9 c3 -5 2 -12 -3 -15 -5 -3 -9 1 -9 9 0 17 3
19 12 6z m103 -16 c-3 -3 -9 2 -12 12 -6 14 -5 15 5 6 7 -7 10 -15 7 -18z
m7662 4 c0 -5 -4 -9 -8 -9 -5 0 -9 7 -9 15 0 8 4 12 9 9 4 -3 8 -9 8 -15z
m-7680 -19 c0 -5 -2 -10 -4 -10 -3 0 -8 5 -11 10 -3 6 -1 10 4 10 6 0 11 -4
11 -10z m7740 6 c0 -3 -4 -8 -10 -11 -5 -3 -10 -1 -10 4 0 6 5 11 10 11 6 0
10 -2 10 -4z m154 -4 c2 -4 -5 -9 -17 -9 -17 -2 -19 0 -7 7 18 12 18 12 24 2z
m-219 -11 c3 -5 2 -12 -3 -15 -5 -3 -9 1 -9 9 0 17 3 19 12 6z m-7650 -31 c3
-6 -1 -7 -9 -4 -18 7 -21 14 -7 14 6 0 13 -4 16 -10z m7634 -13 c0 -9 -2 -9
-5 0 -3 7 -13 9 -22 6 -14 -4 -14 -3 -2 5 16 12 30 7 29 -11z m76 13 c3 -5 1
-10 -4 -10 -6 0 -11 5 -11 10 0 6 2 10 4 10 3 0 8 -4 11 -10z m-79 -32 c5 4 6
3 1 -2 -4 -6 -18 -11 -30 -12 -12 -2 -16 0 -9 2 6 3 9 11 5 17 -5 8 -2 8 9 0
8 -7 19 -9 24 -5z m199 3 c3 -5 2 -12 -3 -15 -5 -3 -9 1 -9 9 0 17 3 19 12 6z
m-715 -5 c0 -3 -4 -8 -10 -11 -5 -3 -10 -1 -10 4 0 6 5 11 10 11 6 0 10 -2 10
-4z m600 -6 c0 -5 -2 -10 -4 -10 -3 0 -8 5 -11 10 -3 6 -1 10 4 10 6 0 11 -4
11 -10z m76 -36 c1 -9 0 -13 -4 -10 -3 4 -7 14 -8 22 -1 9 0 13 4 10 3 -4 7
-14 8 -22z m-81 -4 c3 -5 1 -10 -4 -10 -6 0 -11 5 -11 10 0 6 2 10 4 10 3 0 8
-4 11 -10z m121 -5 c-1 -8 -5 -17 -8 -21 -5 -4 -4 16 1 34 3 9 9 -1 7 -13z
m-222 -11 c3 -8 2 -12 -4 -9 -6 3 -10 10 -10 16 0 14 7 11 14 -7z m-18 -28 c2
-15 0 -26 -6 -26 -6 0 -8 5 -5 10 3 6 -2 11 -12 11 -16 1 -16 2 -1 6 11 3 15
10 11 21 -3 9 -3 14 1 11 4 -4 9 -18 12 -33z m160 -12 c1 -9 0 -13 -4 -10 -3
4 -7 14 -8 22 -1 9 0 13 4 10 3 -4 7 -14 8 -22z m-66 -20 c0 -8 -19 -13 -24
-6 -3 5 1 9 9 9 8 0 15 -2 15 -3z m27 -1 c-4 -3 -1 -13 6 -22 11 -14 10 -14
-5 -2 -16 12 -16 31 -1 31 4 0 3 -3 0 -7z m-132 -30 c2 -10 4 -19 4 -20 1 -2
1 -6 0 -9 0 -4 5 -11 13 -15 10 -7 10 -9 0 -9 -8 0 -10 -5 -6 -12 4 -7 -2 -4
-14 6 -12 11 -22 14 -22 8 0 -6 4 -13 9 -17 13 -7 10 -45 -4 -46 -5 0 -1 -4
10 -9 18 -8 18 -9 2 -9 -10 -1 -15 -6 -12 -11 4 -6 12 -7 18 -3 8 4 8 1 -1 -9
-10 -13 -10 -19 3 -32 9 -9 12 -16 6 -16 -5 0 -13 5 -16 10 -3 6 -11 10 -18
10 -6 0 -3 -6 8 -13 13 -10 15 -16 6 -21 -14 -9 -5 -26 12 -22 7 1 9 1 5 -1
-19 -11 -6 -23 12 -13 14 7 20 7 20 0 0 -5 -7 -10 -15 -10 -8 0 -15 -5 -15
-11 0 -5 4 -8 9 -4 5 3 13 0 17 -6 4 -8 3 -9 -4 -5 -7 4 -12 2 -12 -3 0 -6 -4
-11 -10 -11 -5 0 -9 3 -9 8 3 19 -2 33 -10 28 -12 -8 -34 21 -26 33 4 7 -1 8
-12 4 -16 -6 -16 -5 -5 10 8 9 11 25 7 38 -4 12 -3 19 2 16 5 -3 15 -2 22 2 9
6 10 11 2 15 -6 4 -11 2 -11 -3 0 -13 -22 -10 -32 4 -4 5 -4 14 0 20 4 5 7 16
7 24 0 17 25 28 25 11 0 -6 -4 -8 -10 -5 -5 3 -10 2 -10 -4 0 -19 19 -21 29
-3 7 14 6 25 -4 39 -13 18 -13 22 1 27 8 3 12 11 8 17 -4 8 -9 7 -16 -2 -6
-11 -8 -9 -6 6 2 12 -2 19 -9 18 -7 -2 -13 2 -13 7 0 13 13 13 28 -2 9 -9 13
-7 18 6 7 19 14 16 19 -11z m22 -5 c-3 -7 -5 -2 -5 12 0 14 2 19 5 13 2 -7 2
-19 0 -25z m73 -8 c0 -5 -5 -10 -11 -10 -5 0 -7 5 -4 10 3 6 8 10 11 10 2 0 4
-4 4 -10z m124 2 c3 -5 -1 -9 -9 -9 -8 0 -12 4 -9 9 3 4 7 8 9 8 2 0 6 -4 9
-8z m31 -2 c3 -5 1 -10 -4 -10 -6 0 -11 5 -11 10 0 6 2 10 4 10 3 0 8 -4 11
-10z m-332 -25 c-3 -9 -8 -14 -10 -11 -3 3 -2 9 2 15 9 16 15 13 8 -4z m-129
-13 c-5 -4 -12 -11 -15 -15 -3 -5 -9 -2 -12 5 -3 9 3 14 15 15 11 1 16 -1 12
-5z m66 -11 c0 -6 -4 -13 -10 -16 -5 -3 -10 -16 -10 -27 0 -21 0 -21 -25 2
-14 13 -25 28 -25 34 0 6 5 4 10 -4 6 -10 10 -11 10 -2 0 6 5 12 11 12 5 0 7
-5 3 -11 -4 -7 -1 -10 7 -7 8 3 13 11 12 17 -2 6 2 11 7 11 6 0 10 -4 10 -9z
m80 -11 c0 -5 -4 -10 -10 -10 -5 0 -10 5 -10 10 0 6 5 10 10 10 6 0 10 -4 10
-10z m-15 -50 c-3 -5 1 -23 10 -39 21 -41 20 -54 -4 -39 -15 9 -17 15 -9 25 8
10 7 12 -4 8 -9 -4 -22 1 -31 9 -8 8 -18 12 -22 8 -5 -4 -5 -2 -1 5 3 6 2 14
-3 17 -10 7 -9 37 2 36 19 -2 36 -13 31 -21 -3 -5 2 -9 10 -9 18 0 21 16 6 25
-5 3 -10 11 -10 18 0 6 7 1 16 -11 8 -12 12 -26 9 -32z m369 32 c3 -5 -1 -9
-9 -9 -8 0 -12 4 -9 9 3 4 7 8 9 8 2 0 6 -4 9 -8z m-74 -16 c0 -3 -4 -8 -10
-11 -5 -3 -10 -1 -10 4 0 6 5 11 10 11 6 0 10 -2 10 -4z m-104 -28 c3 -4 -1
-5 -10 -4 -8 1 -18 5 -22 8 -3 4 1 5 10 4 8 -1 18 -5 22 -8z m-61 -38 c3 -5 1
-10 -4 -10 -6 0 -11 5 -11 10 0 6 2 10 4 10 3 0 8 -4 11 -10z m225 5 c0 -7
-30 -13 -34 -7 -3 4 4 9 15 9 10 1 19 0 19 -2z m-100 -25 c0 -5 -5 -10 -11
-10 -5 0 -7 5 -4 10 3 6 8 10 11 10 2 0 4 -4 4 -10z m-64 -22 c3 -4 -1 -5 -10
-4 -8 1 -18 5 -22 8 -3 4 1 5 10 4 8 -1 18 -5 22 -8z m-96 -2 c0 -2 -7 -7 -16
-10 -8 -3 -12 -2 -9 4 6 10 25 14 25 6z m-7460 -12 c0 -8 -19 -13 -24 -6 -3 5
1 9 9 9 8 0 15 -2 15 -3z m7675 -4 c3 -5 1 -10 -4 -10 -6 0 -11 5 -11 10 0 6
2 10 4 10 3 0 8 -4 11 -10z m45 -24 c0 -2 -8 -10 -17 -17 -16 -13 -17 -12 -4
4 13 16 21 21 21 13z m-100 -16 c0 -5 -2 -10 -4 -10 -3 0 -8 5 -11 10 -3 6 -1
10 4 10 6 0 11 -4 11 -10z m-126 -38 c3 -5 -1 -9 -9 -9 -8 0 -15 4 -15 9 0 4
4 8 9 8 6 0 12 -4 15 -8z m206 2 c0 -8 -19 -13 -24 -6 -3 5 1 9 9 9 8 0 15 -2
15 -3z m-85 -24 c3 -5 1 -10 -4 -10 -6 0 -11 5 -11 10 0 6 2 10 4 10 3 0 8 -4
11 -10z m55 4 c0 -8 -19 -13 -24 -6 -3 5 1 9 9 9 8 0 15 -2 15 -3z m24 -30 c3
-8 2 -12 -4 -9 -6 3 -10 10 -10 16 0 14 7 11 14 -7z m-74 -14 c0 -5 -2 -10 -4
-10 -3 0 -8 5 -11 10 -3 6 -1 10 4 10 6 0 11 -4 11 -10z m-45 -19 c3 -5 2 -12
-3 -15 -5 -3 -9 1 -9 9 0 17 3 19 12 6z m111 -23 c3 -4 -1 -5 -10 -4 -8 1 -18
5 -22 8 -3 4 1 5 10 4 8 -1 18 -5 22 -8z m-7606 -12 c0 -2 -7 -7 -16 -10 -8
-3 -12 -2 -9 4 6 10 25 14 25 6z m7515 -14 c-3 -3 -11 0 -18 7 -9 10 -8 11 6
5 10 -3 15 -9 12 -12z m85 -6 c0 -2 -7 -7 -16 -10 -8 -3 -12 -2 -9 4 6 10 25
14 25 6z m-3 -55 c-1 -15 -4 -17 -14 -9 -15 12 -17 22 -3 13 6 -3 10 -1 10 4
0 6 2 11 4 11 3 0 4 -9 3 -19z m20 -13 c-3 -8 -6 -5 -6 6 -1 11 2 17 5 13 3
-3 4 -12 1 -19z m-7203 -616 c2 -4 -5 -9 -17 -9 -17 -2 -19 0 -7 7 18 12 18
12 24 2z m81 -42 c3 -5 1 -10 -4 -10 -6 0 -11 5 -11 10 0 6 2 10 4 10 3 0 8
-4 11 -10z m-222 -15 c-3 -9 -8 -14 -10 -11 -3 3 -2 9 2 15 9 16 15 13 8 -4z
m383 -39 c0 -17 -4 -22 -18 -18 -10 2 -18 8 -18 13 0 5 7 6 15 2 9 -3 15 -2
14 3 -2 12 0 24 4 24 2 0 3 -11 3 -24z m-383 -16 c10 -12 9 -12 -4 -2 -9 6
-18 9 -21 6 -3 -3 -9 -1 -12 4 -9 15 22 8 37 -8z m207 -4 c0 -3 -4 -8 -10 -11
-5 -3 -10 -1 -10 4 0 6 5 11 10 11 6 0 10 -2 10 -4z m113 -21 c-3 -9 -8 -14
-10 -11 -3 3 -2 9 2 15 9 16 15 13 8 -4z m102 6 c-6 -11 44 -53 55 -46 3 2 7
-2 7 -10 0 -8 -3 -14 -6 -13 -19 2 -31 -3 -27 -11 3 -5 20 -7 38 -5 27 3 30 2
15 -7 -13 -7 -16 -17 -11 -32 6 -19 5 -20 -10 -8 -9 7 -16 11 -16 7 0 -4 -10
0 -23 9 -13 8 -27 12 -31 8 -4 -5 -6 -1 -4 7 2 8 11 20 22 26 29 17 3 25 -28
8 -32 -16 -50 -19 -23 -3 14 8 16 14 6 25 -10 12 -8 13 7 8 18 -5 18 -5 0 10
-11 9 -17 19 -13 22 4 4 13 1 22 -6 13 -11 14 -10 9 4 -3 9 -1 16 6 16 6 0 9
-4 5 -9z m-415 -26 c14 -19 14 -19 -2 -6 -10 7 -18 18 -18 24 0 6 1 8 3 6 1
-2 9 -13 17 -24z m40 -5 c0 -5 -2 -10 -4 -10 -3 0 -8 5 -11 10 -3 6 -1 10 4
10 6 0 11 -4 11 -10z m320 1 c0 -5 -8 -15 -17 -22 -16 -12 -17 -12 -6 2 7 9
10 19 6 22 -3 4 -1 7 5 7 7 0 12 -4 12 -9z m173 -16 c-3 -9 -8 -14 -10 -11 -3
3 -2 9 2 15 9 16 15 13 8 -4z m-333 -5 c0 -5 -2 -10 -4 -10 -3 0 -8 5 -11 10
-3 6 -1 10 4 10 6 0 11 -4 11 -10z m-146 -21 c-4 -7 -44 0 -44 7 0 2 11 3 24
2 14 -1 23 -5 20 -9z m106 1 c0 -5 -2 -10 -4 -10 -3 0 -8 5 -11 10 -3 6 -1 10
4 10 6 0 11 -4 11 -10z m140 -34 c0 -3 -4 -8 -10 -11 -5 -3 -10 -1 -10 4 0 6
5 11 10 11 6 0 10 -2 10 -4z m-227 -21 c-3 -9 -8 -14 -10 -11 -3 3 -2 9 2 15
9 16 15 13 8 -4z m20 -10 c-3 -9 -8 -14 -10 -11 -3 3 -2 9 2 15 9 16 15 13 8
-4z m84 -4 c0 -11 -5 -18 -9 -15 -4 3 -5 11 -1 19 7 21 12 19 10 -4z m39 4
c-1 -8 -5 -17 -8 -21 -5 -4 -4 16 1 34 3 9 9 -1 7 -13z m41 -4 c0 -11 -5 -18
-9 -15 -4 3 -5 11 -1 19 7 21 12 19 10 -4z m138 -1 c10 -11 16 -20 13 -20 -3
0 -13 9 -23 20 -10 11 -16 20 -13 20 3 0 13 -9 23 -20z m-95 -10 c0 -5 -2 -10
-4 -10 -3 0 -8 5 -11 10 -3 6 -1 10 4 10 6 0 11 -4 11 -10z m40 6 c0 -3 -4 -8
-10 -11 -5 -3 -10 -1 -10 4 0 6 5 11 10 11 6 0 10 -2 10 -4z m-257 -33 c-3 -7
-6 -13 -8 -13 -2 0 -5 6 -8 13 -3 8 1 14 8 14 7 0 11 -6 8 -14z m42 -53 c3 -6
-1 -7 -9 -4 -18 7 -21 14 -7 14 6 0 13 -4 16 -10z m55 0 c0 -5 -5 -10 -11 -10
-5 0 -7 5 -4 10 3 6 8 10 11 10 2 0 4 -4 4 -10z m116 -2 c4 -7 4 -10 -1 -6 -4
4 -15 2 -24 -5 -14 -11 -14 -10 -2 6 16 20 18 21 27 5z m-143 -53 c-3 -9 -8
-14 -10 -11 -3 3 -2 9 2 15 9 16 15 13 8 -4z m20 -40 c-7 -21 -12 -19 -10 4 0
11 5 18 9 15 4 -3 5 -11 1 -19z m24 -50 c0 -8 -4 -12 -9 -9 -5 3 -6 10 -3 15
9 13 12 11 12 -6z m37 7 c3 -5 -1 -9 -9 -9 -8 0 -12 4 -9 9 3 4 7 8 9 8 2 0 6
-4 9 -8z m-1 -77 c-3 -9 -8 -14 -10 -11 -3 3 -2 9 2 15 9 16 15 13 8 -4z
m13128 -2002 c40 -29 59 -51 59 -69 0 -3 -12 8 -28 23 -15 15 -41 38 -57 51
-74 56 -73 54 -46 41 14 -6 46 -27 72 -46z m1347 -2138 c64 -129 72 -161 15
-55 -84 154 -113 214 -113 233 0 17 4 14 17 -13 9 -19 46 -93 81 -165z m3112
-619 c0 -3 -4 -8 -10 -11 -5 -3 -10 -1 -10 4 0 6 5 11 10 11 6 0 10 -2 10 -4z
m-100 -98 c-96 -89 -112 -100 -40 -27 41 41 77 74 80 72 2 -2 -16 -23 -40 -45z
m-7902 -1273 c-3 -3 -9 2 -12 12 -6 14 -5 15 5 6 7 -7 10 -15 7 -18z m22 -35
c6 -11 8 -20 6 -20 -3 0 -10 9 -16 20 -6 11 -8 20 -6 20 3 0 10 -9 16 -20z
m-20 -20 c0 -5 -5 -10 -11 -10 -5 0 -7 5 -4 10 3 6 8 10 11 10 2 0 4 -4 4 -10z
m50 -15 c0 -2 -6 -8 -13 -14 -10 -8 -14 -7 -14 2 0 8 6 14 14 14 7 0 13 -1 13
-2z m25 -65 c3 -5 1 -10 -4 -10 -6 0 -11 5 -11 10 0 6 2 10 4 10 3 0 8 -4 11
-10z m26 -77 c13 -16 12 -17 -3 -4 -10 7 -18 15 -18 17 0 8 8 3 21 -13z m33
-29 c3 -8 2 -12 -4 -9 -6 3 -10 10 -10 16 0 14 7 11 14 -7z m7 -57 c-6 -8 -7
-18 -3 -22 4 -5 1 -5 -6 -1 -10 6 -10 11 -1 22 6 8 14 14 16 14 3 0 0 -6 -6
-13z m33 -15 c3 -5 -1 -9 -9 -9 -8 0 -12 4 -9 9 3 4 7 8 9 8 2 0 6 -4 9 -8z
m3 -47 c0 -8 -4 -12 -9 -9 -5 3 -6 10 -3 15 9 13 12 11 12 -6z m14 -88 c-10
-9 -11 -8 -5 6 3 10 9 15 12 12 3 -3 0 -11 -7 -18z m40 0 c-10 -9 -11 -8 -5 6
3 10 9 15 12 12 3 -3 0 -11 -7 -18z m24 -27 c3 -5 1 -10 -4 -10 -6 0 -11 5
-11 10 0 6 2 10 4 10 3 0 8 -4 11 -10z m-520 -69 c3 -5 2 -12 -3 -15 -5 -3 -9
1 -9 9 0 17 3 19 12 6z m563 -56 c-3 -3 -9 2 -12 12 -6 14 -5 15 5 6 7 -7 10
-15 7 -18z m-8083 -123 c-3 -3 -11 0 -18 7 -9 10 -8 11 6 5 10 -3 15 -9 12
-12z m0 -62 c-3 -5 -12 -10 -18 -10 -7 0 -6 4 3 10 19 12 23 12 15 0z m8 -57
c-3 -7 -10 -13 -15 -13 -6 0 -8 -7 -4 -15 4 -13 2 -14 -14 -5 -22 12 -26 21
-8 18 7 -2 13 3 14 10 2 18 3 19 18 19 8 0 12 -6 9 -14z m27 -33 c8 -5 11 -10
5 -10 -5 0 -17 5 -25 10 -8 5 -10 10 -5 10 6 0 17 -5 25 -10z m-15 -20 c3 -5
1 -10 -4 -10 -6 0 -11 5 -11 10 0 6 2 10 4 10 3 0 8 -4 11 -10z m45 -14 c0 -2
-7 -7 -16 -10 -8 -3 -12 -2 -9 4 6 10 25 14 25 6z m8171 -59 c-10 -9 -11 -8
-5 6 3 10 9 15 12 12 3 -3 0 -11 -7 -18z m49 -21 c0 -2 -7 -7 -16 -10 -8 -3
-12 -2 -9 4 6 10 25 14 25 6z m20 -106 c0 -5 -2 -10 -4 -10 -3 0 -8 5 -11 10
-3 6 -1 10 4 10 6 0 11 -4 11 -10z m-5615 -560 c-3 -5 -12 -10 -18 -10 -7 0
-6 4 3 10 19 12 23 12 15 0z"/>
<path d="M9251 18540 c-11 -22 -17 -40 -12 -40 5 0 11 8 15 18 3 9 10 27 16
40 16 37 4 25 -19 -18z"/>
<path d="M9216 18465 c-4 -14 -5 -26 -4 -28 2 -2 -4 -12 -12 -21 -17 -21 -22
-46 -9 -46 5 0 9 5 9 10 0 19 2 25 12 38 6 6 7 12 3 12 -4 0 -3 6 2 13 15 19
23 47 14 47 -5 0 -12 -11 -15 -25z"/>
<path d="M9167 18320 c-8 -22 -12 -40 -7 -40 7 0 17 24 26 63 7 30 -2 19 -19
-23z"/>
<path d="M9150 18251 c-12 -24 -13 -44 -1 -37 8 5 22 56 15 56 -2 0 -8 -9 -14
-19z"/>
<path d="M9139 18193 c-1 -5 -3 -17 -5 -28 -1 -11 -6 -36 -9 -55 -9 -50 -9
-189 0 -230 4 -19 8 -41 8 -47 0 -7 4 -13 9 -13 4 0 5 15 1 33 -15 71 -8 305
11 336 4 6 2 11 -3 11 -6 0 -12 -3 -12 -7z"/>
<path d="M9149 17791 c6 -10 7 -21 4 -25 -3 -3 -1 -6 5 -6 7 0 11 -3 10 -7 -4
-16 14 -73 23 -73 5 0 14 -12 20 -26 5 -15 12 -24 15 -22 6 7 -17 58 -27 58
-4 0 -10 12 -15 28 -4 15 -8 29 -9 32 -1 3 -5 17 -9 33 -5 15 -12 27 -17 27
-6 0 -6 -8 0 -19z"/>
<path d="M9236 17608 c3 -4 15 -13 27 -18 20 -10 20 -10 5 3 -10 8 -16 16 -13
19 3 2 -2 5 -10 5 -8 0 -12 -4 -9 -9z"/>
<path d="M11440 11430 c-9 -6 -10 -10 -3 -10 6 0 15 5 18 10 8 12 4 12 -15 0z"/>
<path d="M11545 11290 c-3 -6 1 -7 9 -4 18 7 21 14 7 14 -6 0 -13 -4 -16 -10z"/>
<path d="M10940 11280 c-9 -6 -10 -10 -3 -10 6 0 15 5 18 10 8 12 4 12 -15 0z"/>
<path d="M11465 11270 c-3 -5 -1 -10 4 -10 6 0 11 5 11 10 0 6 -2 10 -4 10 -3
0 -8 -4 -11 -10z"/>
<path d="M11430 11259 c0 -5 5 -7 10 -4 6 3 10 8 10 11 0 2 -4 4 -10 4 -5 0
-10 -5 -10 -11z"/>
<path d="M11400 11250 c-9 -6 -10 -10 -3 -10 6 0 15 5 18 10 8 12 4 12 -15 0z"/>
<path d="M11368 11245 c-3 -3 -14 -7 -24 -9 -34 -7 -77 -26 -71 -32 3 -3 15 0
27 6 12 6 31 13 42 15 19 4 50 25 37 25 -3 0 -8 -2 -11 -5z"/>
<path d="M11248 11204 c-4 -3 -12 -6 -20 -8 -19 -3 -55 -25 -41 -26 6 0 15 5
18 10 4 6 10 8 14 5 5 -2 17 2 27 10 10 8 16 15 13 15 -3 0 -8 -3 -11 -6z"/>
<path d="M11150 11165 c-11 -13 -10 -14 4 -9 9 3 16 10 16 15 0 13 -6 11 -20
-6z"/>
<path d="M11080 11140 c-19 -10 -61 -29 -92 -41 -32 -12 -58 -25 -58 -30 0 -5
8 -5 18 1 49 27 171 77 176 72 3 -3 6 0 6 6 0 16 -9 15 -50 -8z"/>
<path d="M10605 11130 c-3 -6 1 -7 9 -4 18 7 21 14 7 14 -6 0 -13 -4 -16 -10z"/>
<path d="M10823 11021 c-40 -21 -76 -35 -79 -32 -4 3 -4 1 -1 -5 4 -8 29 0 74
23 60 30 96 54 83 53 -3 0 -38 -18 -77 -39z"/>
<path d="M10395 11020 c-3 -6 1 -7 9 -4 18 7 21 14 7 14 -6 0 -13 -4 -16 -10z"/>
<path d="M1976 10997 c3 -10 9 -15 12 -12 3 3 0 11 -7 18 -10 9 -11 8 -5 -6z"/>
<path d="M10339 10983 c-13 -16 -12 -17 4 -4 16 13 21 21 13 21 -2 0 -10 -8
-17 -17z"/>
<path d="M1949 10963 c-13 -16 -12 -17 4 -4 9 7 17 15 17 17 0 8 -8 3 -21 -13z"/>
<path d="M10690 10949 c0 -5 5 -7 10 -4 6 3 10 8 10 11 0 2 -4 4 -10 4 -5 0
-10 -5 -10 -11z"/>
<path d="M10648 10932 c-16 -10 -28 -20 -28 -24 0 -10 49 16 55 30 2 6 3 12 2
11 -1 0 -14 -8 -29 -17z"/>
<path d="M10590 10896 c-6 -9 -27 -21 -46 -28 -18 -6 -35 -17 -38 -24 -3 -7
18 1 47 18 60 35 62 36 55 43 -3 3 -11 -1 -18 -9z"/>
<path d="M10438 10804 c-26 -19 -52 -34 -58 -34 -5 0 -10 -5 -10 -11 0 -11 6
-8 70 35 25 17 47 32 49 33 2 2 2 5 0 7 -2 3 -26 -11 -51 -30z"/>
<path d="M10315 10730 c-3 -5 1 -10 10 -10 9 0 13 5 10 10 -3 6 -8 10 -10 10
-2 0 -7 -4 -10 -10z"/>
<path d="M11934 10652 c4 -3 14 -7 22 -8 9 -1 13 0 10 4 -4 3 -14 7 -22 8 -9
1 -13 0 -10 -4z"/>
<path d="M12198 10613 c7 -3 16 -2 19 1 4 3 -2 6 -13 5 -11 0 -14 -3 -6 -6z"/>
<path d="M11290 10600 c-9 -6 -10 -10 -3 -10 6 0 15 5 18 10 8 12 4 12 -15 0z"/>
<path d="M11195 10580 c-3 -6 1 -7 9 -4 18 7 21 14 7 14 -6 0 -13 -4 -16 -10z"/>
<path d="M12447 10549 c7 -7 15 -10 18 -7 3 3 -2 9 -12 12 -14 6 -15 5 -6 -5z"/>
<path d="M11035 10540 c-3 -5 -1 -10 4 -10 6 0 11 5 11 10 0 6 -2 10 -4 10 -3
0 -8 -4 -11 -10z"/>
<path d="M11000 10530 c-9 -6 -10 -10 -3 -10 6 0 15 5 18 10 8 12 4 12 -15 0z"/>
<path d="M10710 10419 c0 -5 5 -7 10 -4 6 3 10 8 10 11 0 2 -4 4 -10 4 -5 0
-10 -5 -10 -11z"/>
<path d="M10590 10375 c-14 -8 -20 -14 -14 -15 5 0 19 7 30 15 24 18 16 19
-16 0z"/>
<path d="M12802 10374 c10 -10 20 -16 22 -13 3 3 -5 11 -17 18 -21 13 -21 12
-5 -5z"/>
<path d="M10515 10340 c-3 -6 1 -7 9 -4 18 7 21 14 7 14 -6 0 -13 -4 -16 -10z"/>
<path d="M10470 10320 c-9 -6 -10 -10 -3 -10 6 0 15 5 18 10 8 12 4 12 -15 0z"/>
<path d="M12880 10326 c0 -2 8 -10 18 -17 15 -13 16 -12 3 4 -13 16 -21 21
-21 13z"/>
<path d="M11818 10254 c-4 -3 -48 -7 -98 -7 -50 0 -93 -3 -95 -7 -2 -4 47 -6
110 -6 63 0 115 4 115 9 0 4 -4 6 -9 3 -5 -4 -11 -1 -13 5 -2 5 -6 7 -10 3z"/>
<path d="M11866 10253 c-15 -15 -1 -19 74 -21 44 0 78 3 76 7 -3 5 -27 7 -53
6 -27 -1 -58 2 -69 6 -12 4 -25 5 -28 2z"/>
<path d="M11599 10246 c-3 -3 -26 -7 -52 -9 -67 -5 -70 -17 -3 -13 54 3 75 10
64 21 -2 3 -7 3 -9 1z"/>
<path d="M12034 10238 c3 -15 56 -20 56 -5 0 5 -11 7 -25 5 -13 -3 -26 -1 -29
4 -2 5 -3 3 -2 -4z"/>
<path d="M12100 10229 c0 -6 9 -9 20 -6 11 3 23 1 26 -4 3 -5 11 -9 17 -7 7 1
35 -2 62 -6 28 -4 62 -10 78 -12 53 -8 82 -13 115 -20 21 -4 32 -3 32 4 0 6
-7 9 -15 6 -8 -3 -20 -2 -27 2 -7 5 -15 9 -18 9 -3 1 -25 4 -50 8 -25 4 -63
10 -84 12 -22 3 -51 7 -65 10 -14 2 -41 7 -58 10 -21 3 -33 1 -33 -6z"/>
<path d="M11404 10221 c-3 -3 -19 -6 -37 -7 -18 -1 -50 -4 -72 -8 -89 -15
-101 -17 -115 -21 -8 -2 -35 -7 -60 -10 -25 -4 -49 -11 -54 -16 -13 -12 -10
-12 71 5 79 17 124 25 173 31 19 3 55 8 80 11 25 4 55 7 68 7 12 1 22 5 22 9
0 8 -68 7 -76 -1z"/>
<path d="M11695 10191 c-3 -5 -1 -12 5 -16 5 -3 10 -4 10 -1 0 20 299 -112
343 -151 17 -16 17 -16 11 0 -7 18 -117 94 -174 120 -113 51 -182 68 -195 48z"/>
<path d="M12460 10175 c0 -7 41 -23 73 -29 41 -7 112 -28 131 -38 13 -7 17 -6
14 3 -2 7 -42 23 -89 34 -46 12 -94 25 -106 29 -13 4 -23 5 -23 1z"/>
<path d="M11020 10148 c0 -4 7 -8 15 -8 8 0 15 4 15 8 0 5 -7 9 -15 9 -8 0
-15 -4 -15 -9z"/>
<path d="M10970 10143 c-8 -2 -22 -7 -30 -10 -8 -4 -18 -5 -22 -5 -5 1 -8 -3
-8 -8 0 -11 41 -4 71 11 9 5 19 5 23 2 3 -3 6 -1 6 5 0 12 -14 14 -40 5z"/>
<path d="M10863 10113 c-13 -2 -23 -8 -23 -12 0 -11 49 -1 56 10 3 5 2 8 -3 8
-4 -1 -18 -4 -30 -6z"/>
<path d="M12690 10112 c0 -8 113 -53 170 -67 8 -2 17 -4 20 -5 3 -1 8 -2 13
-1 4 0 7 -3 7 -9 0 -5 3 -9 8 -8 4 1 21 -5 37 -12 40 -17 56 -20 49 -9 -3 5
-10 7 -15 4 -5 -4 -9 -1 -9 4 0 6 -8 11 -17 11 -10 0 -27 7 -37 15 -10 8 -22
12 -27 10 -4 -3 -10 -1 -14 5 -3 5 -12 10 -19 10 -8 0 -31 8 -52 17 -22 9 -50
18 -64 20 -13 3 -30 9 -37 15 -9 7 -13 7 -13 0z"/>
<path d="M10799 10094 c-15 -8 -39 -15 -53 -16 -14 -1 -26 -6 -26 -11 0 -5 -7
-7 -15 -3 -8 3 -15 1 -15 -5 0 -6 -4 -8 -9 -4 -5 3 -12 1 -16 -5 -4 -6 -11 -8
-16 -5 -5 4 -9 1 -9 -5 0 -7 6 -10 14 -7 37 14 162 50 169 49 4 -1 7 5 7 13 0
8 -1 15 -2 14 -2 -1 -15 -7 -29 -15z"/>
<path d="M10596 10031 c-4 -7 -5 -15 -2 -18 9 -9 19 4 14 18 -4 11 -6 11 -12
0z"/>
<path d="M13010 9993 c0 -4 14 -16 30 -25 39 -22 39 -15 0 12 -16 12 -30 18
-30 13z"/>
<path d="M13090 9945 c7 -8 18 -15 25 -15 7 0 24 -9 38 -20 14 -11 28 -20 32
-20 12 0 -37 35 -74 53 -27 13 -31 14 -21 2z"/>
<path d="M13255 9850 c3 -5 8 -10 11 -10 2 0 4 5 4 10 0 6 -5 10 -11 10 -5 0
-7 -4 -4 -10z"/>
<path d="M11005 9252 c-15 -15 1 -22 52 -22 45 0 54 3 45 12 -12 12 -87 20
-97 10z"/>
<path d="M10506 9102 c-3 -5 1 -9 9 -9 8 0 12 4 9 9 -3 4 -7 8 -9 8 -2 0 -6
-4 -9 -8z"/>
<path d="M10630 9097 c3 -3 23 -8 44 -11 22 -4 37 -4 34 0 -4 3 -24 8 -45 11
-21 3 -36 3 -33 0z"/>
<path d="M10758 9083 c6 -2 18 -2 25 0 6 3 1 5 -13 5 -14 0 -19 -2 -12 -5z"/>
<path d="M10854 9073 c3 -3 19 -7 36 -8 17 -1 28 0 25 3 -3 3 -19 7 -36 8 -17
2 -28 0 -25 -3z"/>
<path d="M11012 9055 c3 -3 16 -8 28 -10 12 -2 20 -1 16 2 -4 4 -16 8 -28 10
-12 2 -19 1 -16 -2z"/>
<path d="M11070 9046 c0 -2 7 -7 16 -10 8 -3 12 -2 9 4 -6 10 -25 14 -25 6z"/>
<path d="M12730 9030 c0 -5 5 -10 11 -10 5 0 7 5 4 10 -3 6 -8 10 -11 10 -2 0
-4 -4 -4 -10z"/>
<path d="M15007 9028 c7 -8 10 -17 7 -20 -2 -3 2 -8 11 -12 13 -4 14 -2 5 14
-5 10 -16 22 -23 26 -9 6 -9 5 0 -8z"/>
<path d="M11186 9021 c-3 -4 0 -8 7 -8 7 0 26 -4 42 -8 38 -10 30 -1 -12 13
-18 6 -35 7 -37 3z"/>
<path d="M11278 8993 c7 -3 16 -2 19 1 4 3 -2 6 -13 5 -11 0 -14 -3 -6 -6z"/>
<path d="M11336 8978 c3 -5 10 -6 15 -3 13 9 11 12 -6 12 -8 0 -12 -4 -9 -9z"/>
<path d="M11370 8977 c0 -3 15 -10 32 -16 18 -6 28 -7 23 -2 -12 10 -55 25
-55 18z"/>
<path d="M11478 8938 c5 -5 16 -8 23 -6 8 3 3 7 -10 11 -17 4 -21 3 -13 -5z"/>
<path d="M11540 8916 c0 -2 9 -6 20 -9 11 -3 18 -1 14 4 -5 9 -34 13 -34 5z"/>
<path d="M11614 8891 c3 -5 16 -11 28 -14 22 -6 22 -5 4 8 -22 17 -40 20 -32
6z"/>
<path d="M15270 8877 c0 -8 11 -30 24 -50 13 -19 22 -38 18 -41 -3 -3 0 -6 6
-6 7 0 12 -6 12 -13 0 -7 17 -29 37 -48 33 -30 24 -13 -14 29 -12 12 -14 19
-13 37 1 3 -6 13 -15 21 -8 9 -15 22 -15 30 0 8 -4 14 -10 14 -5 0 -10 6 -10
14 0 8 -4 18 -10 21 -5 3 -10 0 -10 -8z"/>
<path d="M11746 8835 c23 -17 34 -19 34 -4 0 5 -4 8 -9 4 -5 -3 -12 -1 -16 5
-3 5 -11 10 -18 10 -6 0 -2 -7 9 -15z"/>
<path d="M15400 8831 c0 -5 11 -16 25 -25 14 -9 25 -15 25 -13 0 2 -11 13 -25
25 -14 12 -25 18 -25 13z"/>
<path d="M11810 8804 c0 -2 9 -8 20 -14 11 -6 20 -7 20 -2 0 6 -9 12 -20 15
-11 3 -20 3 -20 1z"/>
<path d="M11867 8779 c7 -7 15 -10 18 -7 3 3 -2 9 -12 12 -14 6 -15 5 -6 -5z"/>
<path d="M15460 8786 c0 -3 9 -10 20 -16 11 -6 20 -8 20 -6 0 3 -9 10 -20 16
-11 6 -20 8 -20 6z"/>
<path d="M11904 8759 c-4 -7 -3 -9 4 -5 5 3 13 0 15 -6 4 -9 6 -10 6 -1 1 17
-16 25 -25 12z"/>
<path d="M11944 8741 c7 -11 46 -35 46 -28 0 3 -12 12 -26 22 -15 9 -23 12
-20 6z"/>
<path d="M12000 8707 c0 -3 12 -12 26 -22 15 -9 23 -12 20 -6 -7 11 -46 35
-46 28z"/>
<path d="M12090 8657 c0 -2 15 -14 33 -27 20 -15 27 -17 18 -6 -13 16 -51 41
-51 33z"/>
<path d="M15790 8551 c0 -6 4 -13 10 -16 6 -3 7 1 4 9 -7 18 -14 21 -14 7z"/>
<path d="M12270 8526 c0 -2 8 -10 18 -17 15 -13 16 -12 3 4 -13 16 -21 21 -21
13z"/>
<path d="M15830 8466 c0 -2 7 -9 15 -16 9 -7 15 -8 15 -2 0 5 -7 12 -15 16 -8
3 -15 4 -15 2z"/>
<path d="M15880 8392 c0 -5 7 -15 15 -22 8 -7 15 -9 15 -6 0 4 -7 14 -15 22
-8 9 -15 11 -15 6z"/>
<path d="M10330 8120 c0 -4 19 -15 43 -23 23 -8 50 -18 60 -22 11 -5 17 -3 17
6 0 7 -3 10 -6 6 -3 -3 -30 5 -60 18 -30 13 -54 20 -54 15z"/>
<path d="M1870 8102 c-29 -13 -120 -84 -120 -93 0 -6 10 0 23 11 12 12 43 35
70 52 53 35 63 46 27 30z"/>
<path d="M10466 8069 c3 -5 10 -7 15 -4 5 4 9 2 9 -2 0 -5 14 -14 30 -20 37
-14 29 4 -8 19 -38 16 -53 18 -46 7z"/>
<path d="M10565 8030 c3 -5 8 -10 11 -10 2 0 4 5 4 10 0 6 -5 10 -11 10 -5 0
-7 -4 -4 -10z"/>
<path d="M10590 8022 c0 -4 26 -17 58 -30 31 -13 63 -25 70 -29 6 -3 12 0 12
6 0 6 -6 11 -14 11 -7 0 -39 11 -70 25 -31 14 -56 21 -56 17z"/>
<path d="M13233 7995 c0 -8 4 -12 9 -9 5 3 6 10 3 15 -9 13 -12 11 -12 -6z"/>
<path d="M1696 7974 c-23 -23 -20 -30 4 -9 11 10 20 20 20 22 0 7 -9 2 -24
-13z"/>
<path d="M10815 7920 c44 -21 81 -37 84 -35 5 5 -139 75 -153 74 -6 0 25 -18
69 -39z"/>
<path d="M1605 7894 c-56 -53 -57 -54 -9 -16 47 38 81 72 73 72 -2 0 -31 -25
-64 -56z"/>
<path d="M10938 7860 c18 -11 36 -20 40 -20 14 1 -43 40 -58 40 -8 0 0 -9 18
-20z"/>
<path d="M11005 7826 c11 -8 23 -12 27 -9 5 2 11 -3 14 -11 3 -9 10 -13 16
-10 5 3 1 12 -9 19 -10 7 -21 11 -25 9 -5 -3 -8 0 -8 5 0 6 -8 11 -17 11 -15
0 -14 -2 2 -14z"/>
<path d="M2010 7815 c-14 -8 -34 -19 -45 -24 l-20 -10 20 0 c11 0 34 11 50 24
34 28 32 32 -5 10z"/>
<path d="M11080 7794 c0 -9 58 -48 72 -49 4 0 13 -6 20 -12 6 -7 17 -13 24
-13 7 0 15 -6 17 -12 4 -10 6 -10 6 -1 1 11 -53 47 -72 48 -4 0 -12 7 -17 15
-5 8 -10 11 -10 6 0 -5 -9 -1 -20 9 -11 10 -20 14 -20 9z"/>
<path d="M1927 7763 c-9 -2 -15 -8 -12 -13 3 -5 -4 -11 -15 -15 -11 -3 -20
-11 -20 -16 0 -14 4 -12 45 21 37 30 37 32 2 23z"/>
<path d="M1830 7680 c-19 -17 -38 -30 -42 -30 -5 0 -6 -5 -3 -11 5 -6 12 -4
21 8 7 10 14 14 14 10 0 -4 12 4 26 18 37 37 24 41 -16 5z"/>
<path d="M11249 7688 c13 -15 28 -25 33 -22 4 3 11 -2 14 -10 3 -9 12 -16 20
-16 8 0 22 -8 32 -17 10 -10 26 -22 34 -28 8 -5 35 -23 59 -39 24 -16 47 -34
51 -40 5 -7 8 -7 8 -1 0 11 -35 45 -47 45 -3 0 -20 11 -37 23 -59 45 -136 97
-143 97 -3 0 -16 8 -27 17 -16 13 -15 11 3 -9z"/>
<path d="M1765 7620 c-3 -5 -1 -10 4 -10 6 0 11 5 11 10 0 6 -2 10 -4 10 -3 0
-8 -4 -11 -10z"/>
<path d="M1707 7570 c-19 -22 -32 -40 -27 -40 4 0 20 16 35 35 16 19 33 32 38
28 6 -3 7 -1 3 5 -10 16 -8 17 -49 -28z"/>
<path d="M2166 7554 c-3 -8 -10 -13 -15 -9 -5 3 -16 -3 -23 -13 -7 -11 -16
-20 -21 -20 -14 -3 -57 -34 -57 -43 0 -5 12 1 26 14 14 12 30 22 35 22 5 0 14
7 19 15 5 8 13 15 17 16 18 2 43 17 43 25 0 15 -17 10 -24 -7z"/>
<path d="M1641 7504 c-7 -8 -11 -17 -9 -20 3 -2 13 5 23 16 10 11 14 20 9 20
-5 -1 -15 -8 -23 -16z"/>
<path d="M11510 7516 c0 -9 24 -31 66 -62 15 -10 49 -39 76 -64 28 -25 57 -49
66 -54 10 -4 -2 9 -25 30 -73 68 -123 111 -123 106 0 -3 -13 7 -30 23 -16 16
-30 25 -30 21z"/>
<path d="M1590 7449 c0 -5 5 -7 10 -4 6 3 10 8 10 11 0 2 -4 4 -10 4 -5 0 -10
-5 -10 -11z"/>
<path d="M1994 7436 c-11 -12 -29 -27 -40 -34 -10 -7 -5 -6 12 2 29 14 61 43
53 49 -2 2 -13 -6 -25 -17z"/>
<path d="M1549 7393 c-13 -16 -12 -17 4 -4 9 7 17 15 17 17 0 8 -8 3 -21 -13z"/>
<path d="M1882 7350 c-18 -11 -30 -25 -27 -30 3 -6 8 -10 11 -10 3 0 3 4 -1
10 -3 5 8 16 25 25 16 8 30 18 30 20 0 7 -2 6 -38 -15z"/>
<path d="M11734 7318 c-3 -5 -2 -7 3 -6 4 2 9 -1 11 -7 2 -5 10 -14 18 -18 8
-4 14 -16 14 -25 0 -14 2 -14 9 -3 6 9 3 21 -10 34 -10 11 -16 23 -14 27 2 4
-3 7 -11 7 -8 0 -17 -4 -20 -9z"/>
<path d="M1834 7304 c-26 -11 -132 -124 -122 -130 7 -4 8 -2 4 4 -4 7 -3 12 2
12 5 0 36 27 70 60 34 33 61 60 60 59 -2 0 -8 -3 -14 -5z"/>
<path d="M11810 7253 c0 -15 18 -35 27 -32 5 2 1 12 -9 22 -10 9 -18 14 -18
10z"/>
<path d="M11840 7206 c0 -3 9 -10 20 -16 11 -6 20 -8 20 -6 0 3 -9 10 -20 16
-11 6 -20 8 -20 6z"/>
<path d="M11890 7163 c0 -5 10 -18 23 -29 l22 -19 -20 25 c-11 14 -21 27 -22
29 -2 2 -3 0 -3 -6z"/>
<path d="M1611 7083 c-33 -38 -60 -75 -60 -83 0 -13 1 -13 6 0 6 14 14 24 88
103 33 37 40 47 31 47 -2 0 -31 -30 -65 -67z"/>
<path d="M1497 6940 c-20 -27 -37 -53 -37 -56 0 -4 -7 -16 -17 -26 -9 -10 -11
-18 -6 -18 6 0 18 16 28 36 9 19 23 38 31 41 8 3 12 9 9 13 -3 5 -1 11 5 15
10 6 34 45 27 45 -1 0 -19 -22 -40 -50z"/>
<path d="M2431 6892 c-7 -14 -6 -19 3 -19 6 0 13 9 13 19 1 10 0 18 -2 18 -2
0 -9 -8 -14 -18z"/>
<path d="M2383 6854 c-12 -13 -19 -24 -15 -24 4 0 -1 -5 -10 -11 -10 -5 -18
-15 -18 -21 0 -7 16 6 35 28 19 21 35 42 35 47 0 10 -2 9 -27 -19z"/>
<path d="M2416 6845 c-9 -26 -7 -32 5 -12 6 10 9 21 6 23 -2 3 -7 -2 -11 -11z"/>
<path d="M2375 6790 c-3 -6 1 -7 9 -4 18 7 21 14 7 14 -6 0 -13 -4 -16 -10z"/>
<path d="M2291 6753 c-17 -21 -31 -42 -31 -48 0 -5 8 2 18 18 10 15 22 24 27
20 4 -5 5 -3 1 4 -3 6 2 16 11 22 10 5 15 12 12 16 -4 3 -21 -11 -38 -32z"/>
<path d="M2236 6685 c-9 -26 -7 -32 5 -12 6 10 9 21 6 23 -2 3 -7 -2 -11 -11z"/>
<path d="M2295 6670 c-3 -5 -1 -10 4 -10 6 0 11 5 11 10 0 6 -2 10 -4 10 -3 0
-8 -4 -11 -10z"/>
<path d="M2170 6589 c0 -5 5 -7 10 -4 6 3 10 8 10 11 0 2 -4 4 -10 4 -5 0 -10
-5 -10 -11z"/>
<path d="M3060 6420 c-8 -5 -10 -10 -5 -10 6 0 17 5 25 10 8 5 11 10 5 10 -5
0 -17 -5 -25 -10z"/>
<path d="M3048 6393 c7 -3 16 -2 19 1 4 3 -2 6 -13 5 -11 0 -14 -3 -6 -6z"/>
<path d="M3020 6370 c0 -5 4 -10 9 -10 6 0 13 5 16 10 3 6 -1 10 -9 10 -9 0
-16 -4 -16 -10z"/>
<path d="M3008 6339 c-20 -11 -24 -29 -6 -29 6 0 8 3 5 7 -4 3 1 12 11 19 20
16 14 18 -10 3z"/>
<path d="M3486 6325 c-9 -14 -13 -25 -10 -25 4 0 0 -8 -8 -17 -22 -26 -30 -43
-21 -43 5 0 17 14 26 30 10 17 15 30 12 30 -4 0 1 7 9 16 15 14 22 34 12 34
-2 0 -11 -11 -20 -25z"/>
<path d="M2960 6279 c-17 -30 -6 -34 14 -4 9 14 12 25 7 25 -6 0 -15 -9 -21
-21z"/>
<path d="M2927 6243 c-10 -10 -8 -33 3 -33 5 0 6 7 3 17 -5 12 -3 14 7 8 9 -5
11 -4 6 3 -8 14 -10 14 -19 5z"/>
<path d="M3412 6203 c-9 -20 -9 -30 -1 -37 9 -8 10 -6 6 7 -4 10 -1 20 7 23 7
3 13 11 13 19 0 23 -11 18 -25 -12z"/>
<path d="M2897 6188 c-2 -7 -4 -15 -3 -18 0 -3 -9 -16 -21 -29 -12 -13 -20
-28 -17 -33 3 -4 1 -8 -4 -8 -10 0 -57 -90 -54 -102 1 -5 -3 -8 -8 -8 -5 0
-10 -5 -10 -11 0 -21 20 3 40 49 12 26 31 57 42 69 12 13 18 23 13 23 -4 0 -1
8 8 18 10 10 14 22 10 25 -3 4 -2 7 4 7 6 0 13 7 17 15 3 8 1 15 -3 15 -5 0
-11 -6 -14 -12z"/>
<path d="M3385 6149 c-9 -14 -2 -20 14 -10 8 6 9 11 3 15 -6 3 -14 1 -17 -5z"/>
<path d="M3870 6120 c-6 -11 -8 -20 -6 -20 3 0 10 9 16 20 6 11 8 20 6 20 -3
0 -10 -9 -16 -20z"/>
<path d="M3350 6081 c-20 -38 -30 -72 -20 -66 6 3 10 13 10 21 0 8 5 14 11 14
5 0 7 5 4 10 -3 6 -1 10 5 10 6 0 9 4 6 9 -4 5 0 12 6 14 10 4 10 6 1 6 -7 1
-17 -8 -23 -18z"/>
<path d="M3830 6049 c0 -5 5 -7 10 -4 6 3 10 8 10 11 0 2 -4 4 -10 4 -5 0 -10
-5 -10 -11z"/>
<path d="M3810 6009 c0 -5 5 -7 10 -4 6 3 10 8 10 11 0 2 -4 4 -10 4 -5 0 -10
-5 -10 -11z"/>
<path d="M3301 5969 c-14 -40 -14 -52 -1 -44 6 4 8 11 5 16 -4 5 -1 9 5 9 6 0
8 5 5 10 -4 6 -1 17 5 25 8 9 8 15 2 15 -5 0 -15 -14 -21 -31z"/>
<path d="M3795 5979 c-4 -6 -5 -12 -2 -15 2 -3 7 2 10 11 7 17 1 20 -8 4z"/>
<path d="M2761 5947 c-8 -10 -7 -14 4 -14 8 0 12 4 9 8 -2 4 2 10 8 12 8 4 9
6 2 6 -6 1 -17 -5 -23 -12z"/>
<path d="M3766 5924 c-5 -14 -4 -15 9 -4 17 14 19 20 6 20 -5 0 -12 -7 -15
-16z"/>
<path d="M2746 5903 c-3 -10 -5 -22 -5 -27 0 -5 -5 -13 -13 -18 -10 -8 -10 -9
2 -5 8 2 14 10 13 16 -2 6 2 11 9 11 6 0 8 3 5 7 -4 3 -2 12 4 20 8 9 8 13 1
13 -6 0 -13 -8 -16 -17z"/>
<path d="M3275 5900 c-3 -5 -4 -10 0 -10 3 0 0 -10 -6 -22 -15 -28 -23 -90
-10 -68 6 8 8 18 5 22 -3 4 0 17 6 28 19 35 23 79 5 50z"/>
<path d="M2715 5816 c-9 -13 -18 -33 -20 -45 -2 -11 -7 -26 -10 -31 -3 -6 -2
-10 4 -10 5 0 12 15 16 33 4 17 13 42 21 55 8 12 12 22 9 22 -2 0 -12 -11 -20
-24z"/>
<path d="M3726 5823 c-6 -14 -5 -15 5 -6 7 7 10 15 7 18 -3 3 -9 -2 -12 -12z"/>
<path d="M3235 5770 c3 -5 8 -10 11 -10 2 0 4 5 4 10 0 6 -5 10 -11 10 -5 0
-7 -4 -4 -10z"/>
<path d="M2670 5708 c0 -4 4 -8 9 -8 6 0 12 4 15 8 3 5 -1 9 -9 9 -8 0 -15 -4
-15 -9z"/>
<path d="M3676 5703 c-6 -14 -5 -15 5 -6 7 7 10 15 7 18 -3 3 -9 -2 -12 -12z"/>
<path d="M2645 5620 c-3 -6 1 -7 9 -4 18 7 21 14 7 14 -6 0 -13 -4 -16 -10z"/>
<path d="M2637 5563 c-10 -9 -9 -23 1 -23 5 0 9 7 9 15 0 17 -1 18 -10 8z"/>
<path d="M2633 5523 c4 -3 1 -13 -6 -22 -11 -14 -10 -14 5 -2 16 12 16 31 1
31 -4 0 -3 -3 0 -7z"/>
<path d="M2610 5390 c0 -5 5 -10 10 -10 6 0 10 5 10 10 0 6 -4 10 -10 10 -5 0
-10 -4 -10 -10z"/>
<path d="M23409 13914 c6 -12 7 -24 4 -28 -3 -3 -1 -6 5 -6 16 0 15 12 -4 36
-15 18 -15 18 -5 -2z"/>
<path d="M23419 13853 c-4 -42 -3 -63 3 -63 4 0 8 16 8 35 0 19 -2 35 -5 35
-3 0 -5 -3 -6 -7z"/>
<path d="M23410 13741 c0 -11 -3 -28 -6 -38 -5 -12 -4 -15 3 -8 15 15 25 65
13 65 -5 0 -10 -9 -10 -19z"/>
<path d="M23399 13670 c-2 -13 -6 -29 -9 -32 -5 -8 -7 -39 -2 -33 4 4 8 11 8
16 1 5 2 10 3 12 6 6 10 47 6 47 -3 0 -6 -4 -6 -10z"/>
<path d="M22443 13045 c0 -8 4 -12 9 -9 4 3 8 9 8 15 0 5 -4 9 -8 9 -5 0 -9
-7 -9 -15z"/>
<path d="M22435 13010 c-3 -5 -1 -10 4 -10 6 0 11 5 11 10 0 6 -2 10 -4 10 -3
0 -8 -4 -11 -10z"/>
<path d="M22428 12864 c-3 -3 -2 -22 3 -42 11 -49 10 -46 16 -52 3 -3 1 13 -3
35 -4 22 -7 46 -7 53 0 14 -1 14 -9 6z"/>
<path d="M22653 12843 c-18 -2 -33 -8 -33 -13 0 -4 19 -4 43 1 75 17 70 22
-10 12z"/>
<path d="M22453 12742 c0 -12 5 -22 9 -22 11 0 10 12 -2 30 -7 12 -9 10 -7 -8z"/>
<path d="M22471 12695 c24 -35 69 -86 69 -78 -1 4 -19 28 -42 53 -23 25 -35
36 -27 25z"/>
<path d="M9010 15348 c0 -4 4 -8 9 -8 6 0 12 4 15 8 3 5 -1 9 -9 9 -8 0 -15
-4 -15 -9z"/>
<path d="M8875 12741 c-3 -5 -1 -12 5 -16 6 -4 8 -10 5 -15 -3 -5 -1 -11 4
-14 8 -5 8 15 1 34 -1 3 -2 8 -1 13 1 10 -7 9 -14 -2z"/>
<path d="M8834 12608 c-3 -4 2 -8 10 -8 8 0 17 4 20 8 3 5 -2 9 -10 9 -8 0
-17 -4 -20 -9z"/>
<path d="M8754 12638 c3 -23 36 -59 47 -52 5 3 7 10 3 15 -3 5 -10 7 -15 4 -5
-4 -9 -2 -9 2 0 5 -6 18 -14 29 -13 16 -14 16 -12 2z"/>
<path d="M2216 11444 c-4 -11 -2 -15 8 -11 7 3 19 0 25 -6 6 -6 13 -9 15 -6 2
2 -6 12 -19 21 -21 16 -24 16 -29 2z"/>
<path d="M2230 11392 c0 -4 8 -12 18 -18 13 -9 21 -8 31 4 12 12 11 13 -8 7
-12 -4 -21 -2 -21 4 0 6 -4 11 -10 11 -5 0 -10 -3 -10 -8z"/>
<path d="M10665 24160 c-13 -5 -14 -9 -5 -9 8 0 24 4 35 9 13 5 14 9 5 9 -8 0
-24 -4 -35 -9z"/>
<path d="M1265 6513 c-5 -10 -9 -21 -9 -25 -1 -3 -4 -10 -8 -14 -5 -4 -8 -12
-8 -18 1 -10 24 22 25 34 0 3 4 11 9 18 4 7 6 15 3 18 -2 3 -8 -3 -12 -13z"/>
<path d="M1230 6431 c0 -6 4 -13 10 -16 6 -3 7 1 4 9 -7 18 -14 21 -14 7z"/>
</g>
</svg>
